<svg role="presentation" class="dig-Illustration dig-Illustration-spot" viewBox="0 0 500 500" fill="none" xmlns="http://www.w3.org/2000/svg"><title>デスク上の空の用紙トレイのイラスト</title><g fill-rule="evenodd" clip-rule="evenodd"><path d="M135.652 213.319c.143 1.138.602 10.708 1.022 21.268.846 21.336.879 21.533 4.16 24.496 2.168 1.96 7.321 4.466 11.657 5.672 2.688.747 3.616.771 9.442.245 6.2-.56 6.614-.666 10.264-2.613 2.091-1.116 5.67-3.236 7.951-4.711l4.148-2.682.017-3.685c.009-2.026.308-11.578.665-21.225.356-9.648.586-17.606.511-17.685-.075-.079-1.659.841-3.52 2.045s-4.819 2.869-6.573 3.699l-3.189 1.511-11.144.155c-10.428.145-11.318.09-13.847-.856-2.765-1.035-8.743-4.737-10.72-6.639l-1.103-1.062.259 2.067zm242.323 84.021c-.62.465-.724 3.614-.777 23.529l-.06 22.992 4.201 3.215c5.221 3.994 8.273 5.467 13.173 6.357 6.148 1.118 15.583.23 24.214-2.278 2.889-.84 3.792-1.405 6.983-4.366l3.665-3.402-.98-21.807c-.539-11.994-1.015-21.828-1.058-21.853-.042-.026-3.49.482-7.662 1.128-5.904.914-9.582 1.187-16.593 1.231-8.665.054-9.178.005-13.511-1.316-2.477-.755-5.938-1.956-7.691-2.669-2.467-1.003-3.349-1.175-3.904-.761z" fill="#B4C8E1"></path><path d="M140.607 97.931c0 .629.214 1.275.474 1.436.261.161.475.084.475-.17 0-.255.119-.774.264-1.152.145-.38-.068-.817-.474-.973-.543-.208-.739.02-.739.86zm2.252 2.977c-2.058 4.471-3.723 9.698-5.098 16-.569 2.607-1.32 6.02-1.668 7.585-.398 1.785-.637 6.015-.642 11.356-.007 7.259.197 9.722 1.384 16.733 2.448 14.457 2.996 16.029 11.081 31.78 1.377 2.682 3.069 5.467 3.76 6.189 1.022 1.066 1.254 1.751 1.238 3.657l-.018 2.344-1.996-2.133c-2.21-2.362-10.972-10.042-15.033-13.175a313.964 313.964 0 0 1-5.215-4.134c-3.157-2.568-8.552-5.939-11.141-6.961-2.905-1.146-13.222-1.985-20.414-1.66-6.102.276-9.463.879-14.904 2.674a289.354 289.354 0 0 1-6.163 1.928c-1.956.586-4.516 1.563-5.69 2.17-2.126 1.101-7.04 2.565-8.61 2.565-1.057 0-3.241.988-3.241 1.465 0 .201.692.167 1.537-.076.846-.242 2.29-.441 3.207-.441 1.643 0 6.177-1.423 7.263-2.28.306-.24 2.37-1.012 4.586-1.713 2.216-.702 5.31-1.684 6.874-2.182 8.837-2.815 21.965-3.367 32.633-1.373 4.053.757 11.361 5.105 15.908 9.463.42.402 2.149 1.894 3.844 3.316 1.695 1.422 3.188 2.707 3.318 2.855.131.149 2.205 1.921 4.609 3.938 6.152 5.161 6.149 5.127.326 3.559-3.155-.85-5.178-1.019-12.757-1.067-8.315-.052-9.256.029-12.244 1.061-4.626 1.597-18.193 8.537-21.523 11.01a478.058 478.058 0 0 1-11.747 8.495c-7.284 5.124-10.55 8.055-12.949 11.619-.177.263-2.135 2.06-4.352 3.991-4.276 3.729-5.418 5.01-5.028 5.641.3.486 4.492-3.247 11.633-10.359 3.32-3.307 7.168-6.575 9.75-8.284 2.347-1.552 4.578-3.122 4.958-3.49 3.72-3.601 21.805-13.415 29.729-16.133 7.199-2.468 17.164-2.547 26.864-.211 4.267 1.028 6.197 2.333 6.391 4.322.13 1.332.005 1.526-.977 1.526-1.208 0-7.338 1.515-10.713 2.647-2.535.85-6.526 4.136-6.917 5.696-.618 2.462 1.698 4.756 7.792 7.716 6.601 3.206 13.994 4.14 24.054 3.036 3.408-.373 5.668-.91 7.585-1.799 1.502-.698 3.691-1.562 4.864-1.92 1.237-.377 3.104-1.544 4.441-2.774 2.233-2.055 2.289-2.172 1.768-3.667-.791-2.27-1.91-3.796-2.51-3.425-.294.182-.395.112-.227-.159.377-.611-.794-1.649-3.261-2.888-2.16-1.085-8.807-2.18-9.217-1.517-.152.247-1.115.231-2.305-.036-1.124-.253-2.292-.428-2.596-.391-1.208.148-1.726-.086-2.216-1.003-.851-1.59 5.168-13.283 10.4-20.206 3.964-5.244 10.227-11.676 14.65-15.047 8.333-6.349 9.775-7.304 14.998-9.929 7.182-3.609 9.568-4.499 13.6-5.07 1.909-.271 5.288-.917 7.507-1.436a435.63 435.63 0 0 1 5.22-1.198c2.428-.52 13.072-4.064 13.985-4.656.522-.339 1.802-.884 2.845-1.213 1.043-.329 2.625-1.015 3.516-1.525.89-.51 2.406-.971 3.369-1.025 1.501-.083 1.833.09 2.331 1.216.32.722.777 1.314 1.016 1.314.577 0 .556-.817-.03-1.179-.705-.437.542-2.14 1.566-2.14.494 0 .783-.258.666-.592-.117-.335-.78-.53-1.523-.447-1.017.113-1.252-.018-1.038-.577.153-.398.063-.856-.198-1.018-.312-.193-.291-.519.061-.943.619-.745.227-1.638-.717-1.638-.354 0-.724-.24-.822-.534-.191-.574-4.167 1.202-4.167 1.861 0 .197.426.724.948 1.171.521.446.948.975.948 1.174 0 .2-1.12.862-2.489 1.472a2173.13 2173.13 0 0 0-6.045 2.705c-6.579 2.956-21.242 7.077-28.621 8.043-2.164.283-8.368 2.437-10.49 3.642-.521.296-2.228 1.165-3.792 1.931-3.908 1.913-7.223 4.004-9.519 6.006-1.064.926-3.091 2.533-4.504 3.57-5.364 3.936-13.469 13.011-18.137 20.308-1.723 2.692-6.477 12.339-6.477 13.141 0 1.116-1.408.29-2.615-1.533-.725-1.096-2.055-2.749-2.956-3.674l-1.638-1.683.299-9.481c.257-8.143.532-10.653 1.946-17.778.906-4.563 1.983-9.47 2.393-10.904.41-1.434.967-5.914 1.237-9.955.81-12.092 2.573-19.331 6.96-28.57 1.019-2.147 2.653-5.611 3.631-7.697.979-2.086 2.154-4.328 2.612-4.982.764-1.092 1.123-2.378.985-3.537-.113-.954-11.079 18.553-11.319 20.134-.168 1.115-.784 3.172-1.064 3.555-.463.637-2.205 6.225-2.586 8.297-.167.912-.404 3.579-.527 5.926-.432 8.248-1.148 15.939-1.559 16.735-.228.443-.637 1.872-.908 3.176-1.961 9.413-2.17 10.169-2.695 9.734-.759-.631-4.026-.344-4.481.393-.209.337-.769.543-1.245.457-.593-.106-.965.219-1.177 1.031-.171.651-.558 1.132-.861 1.066-.692-.149-.689.142.019 2.1.312.866.829 1.574 1.146 1.574.318 0 .888.12 1.269.266.456.175.791-.133.984-.905.222-.883.526-1.109 1.244-.921.532.14.95.016.95-.28 0-.292.407-.53.904-.53.609 0 .848.27.734.83-.276 1.355-.659 9.049-.675 13.569-.019 5.463-.519 5.143-4.349-2.784-.504-1.043-1.234-2.43-1.622-3.082-.388-.652-1.456-2.785-2.375-4.74-.918-1.956-1.865-3.913-2.103-4.351-.606-1.11-2.853-9.62-3.296-12.479-.202-1.304-.752-4.61-1.222-7.348-1.255-7.3-1.101-22.423.28-27.456a1208.9 1208.9 0 0 0 3.088-11.697c1.158-4.464 2.532-9.354 3.053-10.867 1.052-3.06 1.128-3.55.547-3.55-.22 0-1.16 1.653-2.09 3.674zm28.089-2.726c-.441.823-.36.948.615.948 1.443 0 1.885-.458 1.219-1.26-.732-.883-1.241-.796-1.834.312zm-34.019 3.311c-.829 1.328-.732 1.903.321 1.903.499 0 1.006.267 1.125.593.274.748 1.061.031 1.475-1.343.227-.754.01-1.118-.918-1.541-1.504-.685-1.309-.723-2.003.388zm7.181 3.103c-.812 1.24-.73 1.647.365 1.812.35.053.903.263 1.229.467.908.567 1.54-.073 1.54-1.56 0-1.223-.697-1.919-1.924-1.919-.233 0-.778.54-1.21 1.2zm29.947.559c-.206.536.052 1.083.762 1.619 1.021.77 1.105.764 1.725-.121.868-1.238.382-2.664-.624-1.83-.489.407-.705.423-.705.053 0-.822-.81-.628-1.158.279zm-11.241.256c-.401.326-1.187 1.264-1.747 2.084-.826 1.209-.891 1.54-.345 1.75.371.142.929-.049 1.24-.425.857-1.032 1.294-.821 1.041.502-.125.652-.042 1.201.184 1.221.226.019.869.121 1.43.227.685.128 1.259-.176 1.753-.93.822-1.254.608-1.703-.813-1.703-.749 0-.837-.126-.395-.569.313-.313.569-.977.569-1.477 0-.676-.243-.845-.948-.661-.522.137-.83.055-.683-.181.388-.63-.442-.525-1.286.162zm-29.372.67c-.654.175-1.844 2.011-1.844 2.845 0 .148.546.165 1.213.038.873-.167 1.145-.056.972.396-.283.735 2.536 2.305 3.109 1.733.207-.208.508-1.034.669-1.837.243-1.213.125-1.502-.702-1.718-.547-.143-.994-.6-.994-1.016 0-.73-.799-.875-2.423-.441zm9.35 4.622a21.062 21.062 0 0 1-.592 1.935c-.228.595-.079.759.591.649.492-.082 1.163.019 1.488.223.327.205.86.207 1.185.006.326-.201.963-.374 1.416-.384.453-.009.827-.177.83-.373.041-2.365-.011-2.414-3.143-2.943-1.277-.216-1.53-.09-1.775.887zm28.506.753c-1.146 3.034-1.254 3.84-.551 4.109.393.151.848.141 1.011-.022.163-.163.662.034 1.108.438.734.664.886.661 1.579-.033.689-.688.768-.69.768-.022 0 1.141 1.274.884 1.597-.322.469-1.75.35-2.172-.708-2.508-.627-.199-1.178-.077-1.459.324-.364.519-.41.506-.241-.068.114-.391.007-1.102-.239-1.58-.418-.812-.505-.817-1.317-.083-.811.735-.882.73-1.074-.079-.166-.7-.256-.729-.474-.154zm-17.097 2.327c-2.196 3.319-1.407 3.891 1.7 1.231 1.064-.911 2.022-1.569 2.129-1.462.108.108-.259 1.222-.814 2.477-.941 2.127-.955 2.322-.207 2.869.442.323.98.477 1.197.343.217-.134.821-.016 1.342.263.764.409 1.149.305 1.995-.541.632-.633.834-1.119.509-1.228-.401-.133-.401-.481.003-1.367.433-.951.404-1.277-.143-1.634-.377-.245-1.058-.357-1.514-.248-.615.148-.83-.095-.83-.942 0-.864-.258-1.142-1.066-1.147a9.717 9.717 0 0 1-2.049-.27c-.763-.204-1.265.165-2.252 1.656zm-27.318.406c-.689 2.496.081 3.011 1.9 1.269l1.458-1.395-.507 1.335c-.278.733-.506 1.492-.506 1.684 0 .517 4.72 2.976 5.173 2.696.213-.132.505-.939.648-1.792.143-.854.403-1.912.578-2.352.244-.617-.176-1.024-1.83-1.778-2.715-1.237-3.531-1.228-4.895.053-.887.833-1.097.886-1.097.276 0-.414.256-.839.569-.943.36-.12.279-.301-.221-.493-.607-.233-.899.098-1.27 1.44zm17.039 2.837c-.002.195-.504.982-1.116 1.747l-1.114 1.392.231-1.577c.162-1.101.07-1.478-.306-1.246-.72.445-.704 4.069.018 4.069.305 0 .981-.373 1.502-.829.904-.792.933-.791.638.018-.367 1.005.892 1.68 1.674.898.369-.369.961-.327 2.099.148 1.528.639 1.596.621 1.876-.496.331-1.318-1.377-3.509-2.746-3.523-.441-.005-.934-.222-1.095-.482-.34-.551-1.658-.645-1.661-.119zM118.8 118.99c0 1.31 1.028 2.247 1.885 1.717.208-.128.489.191.624.709.274 1.048 1.729 1.256 2.611.374.442-.442.569-.31.569.594 0 1.64 2.246 3.584 4.601 3.981 1.824.308 2.021.235 2.694-1.007.4-.736.735-1.165.745-.953.011.213-.19.777-.445 1.254-.619 1.157.752 2.499 1.442 1.411.624-.986 1.068-3.637.748-4.47-.369-.962-2.154-.91-2.532.072-.264.688-.346.667-.655-.169-.249-.671-.927-1.033-2.278-1.214-1.058-.142-2.265-.599-2.682-1.016-.942-.942-1.362-.951-2.112-.047-.963 1.161-1.523.825-1.185-.711.254-1.158.158-1.422-.518-1.422-.457 0-1.254.373-1.771.829-.909.801-.932.793-.675-.237.182-.727.055-1.066-.399-1.066-.42 0-.667.509-.667 1.371zm52.419.845c-.145.378-.503.541-.795.36-1.111-.687-1.873 2.536-.945 4 .227.358 1.326.729 2.443.823 1.117.095 2.402.291 2.856.435.628.199.964-.159 1.408-1.503.549-1.666.512-1.821-.661-2.756-1.955-1.559-3.984-2.199-4.306-1.359zm-26.072 5.487c-.435.587-.675.823-.535.524.209-.442-.647-1.116-1.417-1.116-.099 0-.443.88-.765 1.954l-.586 1.955-.532-1.836c-.492-1.702-.559-1.755-.9-.728-.519 1.557.081 4.344.934 4.344.383 0 1.12-.214 1.638-.474.518-.261 1.344-.674 1.836-.919.491-.244 1.291-.339 1.779-.212.732.191.856.598.717 2.34-.145 1.826-.044 2.109.749 2.109.504 0 1.193-.518 1.531-1.151.519-.969.755-1.064 1.495-.602.703.439 1.039.389 1.679-.25.75-.751.837-.75 1.401.009.501.674.761.711 1.559.224.527-.322 1.27-.465 1.652-.319.831.319 1.714-1.145 1.714-2.841 0-1.518-1.814-2.685-2.438-1.568-.244.437-.785.621-1.369.469-.552-.145-1.343.09-1.85.549-.581.526-.993.627-1.198.296-.558-.904-1.456-.535-2.34.962l-.866 1.466-.582-1.111c-.621-1.185-.103-3.021.711-2.518.248.153.451-.015.451-.373s-.754-1.011-1.676-1.451c-2.066-.985-1.848-1.006-2.792.268zm67.824 2.942c-.789.633-1.149 1.214-.862 1.391.27.168.626.088.79-.177.164-.265.531-.482.817-.482.286 0 .167.391-.265.867-1.018 1.125-.999 1.68.045 1.317.791-.276.791-.259 0 .356-1.054.821-1.069 1.727-.029 1.727.671 0 .631.158-.248.977-1.215 1.132-.903 2.065.568 1.695.961-.241.968-.22.136.401-.922.69-.647 1.895.317 1.39.308-.161-.141.284-.999.989-1.283 1.055-1.456 1.406-.978 1.981.462.557.443.783-.097 1.117-1.185.732.171 1.615 1.438.937 1.549-.828 1.712-.218.293 1.096-.788.731-1.136 1.436-.95 1.923.163.423.06.768-.23.768-.288 0-.524.213-.524.474 0 .771 1.261.547 3.33-.592 4.235-2.332 4.032-2.1 2.143-2.454-1.523-.286-1.626-.395-.98-1.041.85-.849.915-1.426.212-1.861-.327-.201-.131-.718.545-1.437.942-1.004.97-1.156.26-1.428-.612-.235-.671-.454-.255-.955.297-.357.402-1.008.233-1.447-.17-.444-.036-.966.303-1.177.475-.295.486-.577.05-1.281-.406-.654-.416-1.044-.038-1.422.378-.378.218-.632-.584-.929-.976-.361-1.007-.446-.264-.731.681-.262.731-.455.259-1.023-.32-.385-.748-.597-.952-.471-.204.126-.498-.103-.654-.509-.156-.407-.48-.617-.72-.469-.24.149-.509.073-.596-.168-.087-.241-.769.051-1.514.648zm-92.329 3.186c-.366 1.862-.693 2.617-.955 2.204-.219-.345-.402-1.082-.406-1.637-.004-.554-.344-1.288-.756-1.63-.67-.556-.713-.423-.408 1.245.738 4.037 1.924 5.163 3.107 2.952l.562-1.049.366.99c.436 1.178 4.59 2.066 5.182 1.107.226-.366.424-.241.583.371.162.618.827 1.034 2.011 1.256.973.183 1.83.265 1.904.183.074-.082.284-1.256.466-2.608l.331-2.458-2.026-.979c-1.114-.538-2.209-.978-2.434-.978-.224 0-.81.897-1.301 1.994l-.893 1.994-.15-2.108c-.172-2.408-1.311-3.093-2.171-1.307-.503 1.044-.524 1.029-.555-.399-.023-1.064-.298-1.555-.966-1.73-.812-.213-1.006.124-1.491 2.587zm105.299-1.508c0 .268.767.375 1.778.249l1.777-.223-1.514.966c-1.844 1.177-1.665 2.558.275 2.12 1.075-.242 1.135-.2.451.32-.434.33-1.165.827-1.624 1.104-1.188.716-.424 1.628 1.374 1.64l1.512.01-1.076.829c-.878.676-1.02 1.114-.769 2.37.17.848.505 1.662.745 1.81.248.155.189.566-.14.962-.456.55-.426.842.147 1.415.607.606.826.619 1.381.079.363-.354 1.363-1.136 2.221-1.74 1.241-.873 1.448-1.232 1.014-1.756-.301-.362-.429-.966-.285-1.341.144-.376-.065-.954-.464-1.285-.648-.538-.637-.668.098-1.205.699-.511.728-.72.19-1.367-.379-.458-1.083-.678-1.755-.55l-1.12.214 1.023-1.088c1.155-1.23.896-2.09-.645-2.146-.571-.02-.772-.145-.446-.276.326-.132.592-.541.592-.911 0-.49-.641-.672-2.37-.672-1.304 0-2.37.212-2.37.472zm-57.603.595c-.525 1.487-1.1 4.846-.888 5.189.516.835 1.896.285 2.934-1.167l1.094-1.533-.31 1.737c-.265 1.486-.156 1.819.753 2.306.877.469 1.136.438 1.482-.182.289-.515.824-.669 1.711-.491 1.061.212 1.502-.023 2.472-1.319l1.18-1.577.239 1.654c.349 2.411 1.679 2.49 1.819.108.126-2.135-1.181-3.698-2.749-3.288-.53.139-.964.082-.964-.127 0-.82-1.602-.939-2.439-.181-.831.752-.879.739-.879-.24 0-1.884-1.457-1.804-3.167.174-1.497 1.732-1.574 1.764-1.574.652 0-.643.256-1.426.569-1.739.442-.442.386-.568-.252-.568-.452 0-.915.266-1.031.592zm29.452 1.102c-1.342 1.232-1.698 1.831-1.317 2.213.382.382.854.373 1.744-.033 1.712-.78 1.762-.711.443.608-1.413 1.413-1.497 2.63-.206 2.968.738.193.838.396.434.883-.806.971-.039 1.742 1.386 1.391 1.15-.283 1.082-.134-.84 1.835-1.787 1.833-2.001 2.252-1.474 2.888.376.452.98.63 1.54.452.829-.263.864-.185.347.781-.472.883-.445 1.169.152 1.606.532.388.602.754.26 1.366-.319.57-.293 1.044.084 1.498.303.365.411 1.101.241 1.637-.726 2.287 3.565 1.277 5.204-1.225.656-1.002.647-1.194-.096-2.063-.452-.527-1.131-.959-1.51-.959-.483 0-.346-.363.458-1.22 1.08-1.149 1.096-1.248.286-1.702-.822-.459-.823-.525-.033-1.398.622-.687.694-1.052.289-1.458-.406-.406-1.051-.342-2.573.253l-2.031.795 2.059-1.887c2.257-2.069 2.36-3.019.352-3.255-1.251-.147-1.273-.194-.499-1.049.908-1.003.634-2.353-.475-2.353-.915 0-.919-.349-.015-1.253 1.6-1.6.019-2.644-2.019-1.333-1.286.828-1.291.827-.47-.104.456-.517.83-1.083.83-1.258 0-.672-.779-.252-2.551 1.376zm43.084-1.374c-1.208.243-2.223 2.244-1.504 2.964.28.28.833.508 1.231.508.506 0 .411.218-.323.731-1.027.72-1.03.756-.195 2.315 1.074 2.003 2.182 3.117 3.1 3.117 1.013 0 1.427-.87.783-1.647-.428-.515-.335-.77.433-1.181 1.149-.615 1.288-1.823.255-2.22-.499-.191-.578-.453-.253-.843.646-.779-.882-4.085-1.848-4a19.13 19.13 0 0 0-1.679.256zm-99.493 6.004c-.698 1.97-.699 1.971-.736.459-.067-2.715-.986-2.269-.986.479 0 3.049.994 4.408 2.11 2.882.583-.797.835-.833 2.213-.313.855.323 1.672.41 1.816.195.49-.733 2.184-.877 2.783-.236.962 1.029 1.582.739 1.421-.665-.093-.805-.557-1.482-1.217-1.771-.586-.258-1.066-.819-1.066-1.248 0-.881-1.306-1.425-3.886-1.621-1.667-.126-1.787-.037-2.452 1.839zm44.927 4.992c-2.482 1.828-4.703 4.24-4.286 4.656.186.186 1.33-.03 2.544-.48l2.205-.817-1.748 1.749c-1.939 1.939-2.154 2.739-.922 3.428.767.429.75.544-.237 1.595-.585.623-1.064 1.469-1.064 1.88 0 .846 1.252 1.485 2.002 1.022.271-.167-.059.508-.733 1.5-1.327 1.952-1.274 2.595.213 2.595.717 0 .882.221.669.892-.616 1.942 3.71 1.73 5.302-.26 1.506-1.88 1.446-3.183-.13-2.881l-1.211.231 1-1.064c.906-.965.924-1.092.195-1.372-.442-.17-1.3.017-1.905.413-1.93 1.265-1.784.786.467-1.529 1.205-1.239 2.19-2.412 2.19-2.608.001-.836-2.654-.253-4.222.927-1.321.994-1.081.604 1.069-1.736 2.609-2.842 2.716-3.049 1.816-3.535-.944-.509-.944-.529-.046-1.634.5-.616.909-1.316.909-1.556 0-.934-1.454-.922-2.782.023-1.887 1.344-2.367 1.252-1.01-.192.612-.652 1.515-1.186 2.006-1.186.492 0 .774-.195.626-.433-.147-.239 0-.542.328-.674.327-.132.147-.257-.4-.277-.548-.021-1.828.575-2.845 1.323zm-35.766.575c-.508.949-.554.953-1.187.118-.605-.799-.659-.744-.673.672-.009.847.144 1.561.34 1.585 2.817.35 4.423.244 4.894-.323.336-.405.985-.55 1.679-.376.974.244 1.131.113 1.131-.944 0-.916-.303-1.304-1.191-1.527-.656-.164-1.463-.074-1.794.201-.381.316-.858.339-1.298.06-1.02-.645-1.315-.562-1.901.534zm17.341 2.449-1.778 2.489.23-2.252c.127-1.238.057-2.252-.154-2.252-.432 0-.729.859-1.178 3.392-.269 1.52-.174 1.773.775 2.075.803.255 1.292.083 1.898-.666.962-1.188 1.376-1.277 1.376-.297 0 .391.089.711.198.711.109 0 .515.122.902.27.471.181 1.115-.405 1.952-1.778.961-1.576 1.181-1.756.953-.782-.23.982-.073 1.383.704 1.799 1.46.782 1.869.269 1.59-1.998-.316-2.571-1.314-3.469-2.787-2.504-.924.605-1.087.605-1.32-.002-.493-1.285-1.574-.707-3.361 1.795zm-53.508-1.698c-.174.173-.316 1.027-.316 1.896 0 1.854-.714 2.101-1.143.395-.163-.652-.51-1.185-.771-1.185-.523 0-.184 1.91.672 3.787.796 1.742 2.174 1.839 2.255.158.056-1.158.093-1.191.273-.244.275 1.439 2.202 2.356 3.204 1.525.469-.389.725-.42.725-.086 0 .283.449.756.999 1.05 1.209.647 1.833.156 2.624-2.063l.542-1.52-.004 1.971c-.003 1.084.139 2.204.315 2.489.421.68 2.635.671 2.635-.012 0-.301.421-.419.977-.273.597.156 1.078-.006 1.235-.416.165-.429.644-.574 1.329-.402 1.193.3 1.656-.668 1.667-3.49.007-1.69-.166-1.805-3.247-2.16-1.822-.21-2.104-.116-2.359.79-.24.856-.331.75-.538-.63-.203-1.355-.475-1.686-1.48-1.803-1.089-.126-1.345.147-2.221 2.371l-.99 2.513-.031-1.744c-.032-1.784-1.139-3.417-2.101-3.097-.295.099-.682 1.196-.86 2.438-.382 2.671-.862 3.41-.862 1.328 0-2.833-1.358-4.758-2.529-3.586zm132.51 3.75c-2.174 1.861-2.404 2.443-1.152 2.91.456.17 1.111.7 1.455 1.178.344.478.857.725 1.14.55.314-.193.378-.096.163.25-.416.674.595 2.057 1.22 1.671.239-.148.801.166 1.25.696 1.096 1.294 3.093 1.737 3.83.85.456-.55.368-1.036-.438-2.401-.555-.941-1.309-1.711-1.674-1.711s-.664-.328-.664-.728c0-.401-.354-1.268-.787-1.928-.625-.955-1.037-1.139-2.002-.896-1.169.293-1.184.27-.398-.598.449-.497.816-1.046.816-1.221 0-.678-.855-.251-2.759 1.378zm-94.253.908c-.176.457-.641.615-1.315.446-.73-.183-1.425.12-2.32 1.016-1.223 1.223-1.278 1.234-1.278.265 0-1.566-1.649-1.254-2.79.528-.821 1.281-.998 1.381-1.051.593-.036-.522-.027-1.145.019-1.384.045-.24-.261-.151-.68.197-1.075.891-.767 3.494.441 3.723.504.096 1.197-.21 1.54-.679.554-.756.624-.765.624-.068 0 .431.418 1.009.929 1.282.776.415 1.102.265 1.969-.909.878-1.187 1.189-1.327 1.99-.898.766.41 1.095.322 1.705-.454.415-.529 1.18-1.037 1.698-1.129 1.246-.22 1.516-1.826.441-2.613-1.106-.809-1.587-.788-1.922.084zm23.128.865c-.295.357-.593 1.695-.66 2.974-.109 2.086-.013 2.343.928 2.477 1.032.147 1.038.182.292 2.045-.621 1.552-.652 2.095-.172 2.992.466.87.465 1.321-.004 2.197-.514.961-.463 1.186.405 1.763.768.51.932.974.719 2.038-.186.93-.084 1.378.313 1.378.355 0 .491.376.341.949-.152.581.046 1.114.508 1.373.592.331 1.05-.036 2.09-1.677 1.725-2.721 1.676-3.384-.229-3.064-.207.034-.132-.394.167-.953.568-1.06.012-1.819-1.341-1.836-.408-.004-.504-.397-.297-1.221.245-.977.108-1.266-.702-1.477-1.206-.316-1.195-.201-.228-2.227.953-2 .59-3.141-1.001-3.141-1.316 0-1.385-.287-.741-3.068.49-2.112.399-2.47-.388-1.522zm-9.96 5.35c-1.357 1.925-1.45 2.246-.792 2.727 1.097.802-.064 3.257-1.349 2.854-.504-.159-1.065-.001-1.296.364-.3.473-.409.487-.415.051-.015-1.229-.893-.53-1.19.948a41.746 41.746 0 0 1-.544 2.37c-.166.59.039.83.707.83.518 0 1.029-.266 1.138-.591.108-.325.606-.591 1.106-.592.626-.002.954-.387 1.052-1.235.12-1.028.337-1.197 1.304-1.012 1.4.268 1.392.139.149 2.246l-1.011 1.713 1.066.28c.961.251 1.038.483.781 2.36-.217 1.584-.119 2.144.411 2.348.515.197.575.492.23 1.135-.37.692-.265.933.517 1.181.564.179.878.583.737.95-.134.35-.014.713.266.807.333.111.241.692-.264 1.666-1.034 2-1.025 2.018.918 2.018 1.475 0 1.653.121 1.39.948-.226.712-.086.947.561.942.725-.005 2.536-2.927 3.864-6.237.087-.217-.233-.397-.711-.401-1.601-.014-2.213-.707-1.613-1.829.443-.828.408-1.008-.2-1.008-.67 0-.67-.136.003-1.436.805-1.558.543-2.579-.554-2.158-.387.149-.561.058-.397-.208.459-.742-1.009-1.069-2.123-.473-.982.525-.977.478.161-1.768 1.014-2.002 1.075-2.367.453-2.759-.63-.397-.611-.637.157-1.997.766-1.355.785-1.602.162-2.006-.391-.252-.995-.355-1.342-.228-.398.147-.26-.368.371-1.39l1.003-1.622-.964-.306c-.53-.168-.964-.611-.964-.985 0-1.33-1.263-.646-2.778 1.503zm68.249-1.296c-1.118.314-1.109.337.59 1.494.948.646 1.726 1.336 1.728 1.531.002.195.323.356.714.356.395 0 .712.421.712.948 0 .656.316.948 1.027.948.565 0 .891.136.725.302-.574.573 1.63 3.093 2.435 2.785.419-.161.61-.141.424.044-.185.185-.102.619.183.963.39.469.758.499 1.469.118.595-.318 1.117-.34 1.397-.06.586.586 2.591.189 3.287-.649.437-.526.349-.659-.432-.659-1.105 0-1.701-.736-1.728-2.133-.009-.521-.276-.897-.593-.835-.316.062-.462-.183-.323-.545.363-.946-.493-1.306-1.865-.784-.902.343-1.248.287-1.448-.233-.144-.377-.695-.685-1.225-.685-.53 0-.963-.213-.963-.474 0-.26-.284-.474-.631-.474-.347 0-.916-.533-1.265-1.185-.654-1.221-1.839-1.438-4.218-.773zM91.143 153.53c-.659 2.427-.745 3.407-.325 3.667.297.183.265.61-.088 1.175-.426.682-.42 1.049.02 1.58.466.563.395.738-.385.942-1.124.294-1.279 1.668-.232 2.07.44.169.62.61.456 1.125-.196.618.088.976 1.053 1.328.822.3 1.008.497.491.52-.456.02-.83.306-.83.633 0 .416.647.545 2.134.427 1.173-.094 2.162-.309 2.196-.478.035-.169.124-.948.198-1.73.073-.782.283-1.902.466-2.489.252-.81.143-1.067-.451-1.067-.648 0-.691-.171-.251-.993.442-.827.365-1.11-.46-1.687-.78-.546-.889-.884-.513-1.585.302-.565.31-.995.022-1.173-.25-.154-.353-.545-.229-.869.124-.323-.398-.957-1.16-1.407-1.719-1.016-1.834-1.015-2.112.011zm31.234.711c.446 1.475.655 1.615 2.913 1.955 1.252.188 2.106.104 2.311-.227.23-.372.435-.348.701.082.207.335 1.146.669 2.089.743.942.074 1.905.254 2.14.399.234.145.761-.214 1.17-.798.409-.584.743-.865.743-.624s.256.181.569-.132c.948-.947-.25-1.627-3.098-1.759-1.428-.067-2.777-.227-2.997-.357-.219-.13-1.286-.232-2.371-.227-1.532.006-2.079.23-2.456 1.009-.485 1.001-.486 1.001-.518-.064-.019-.639-.33-1.067-.775-1.067-.551 0-.66.278-.421 1.067zm-22.531.107c-.675.814-.152 2.155 1.353 3.469l1.245 1.088-1.239-.293c-1.77-.419-2.209.978-.789 2.517 1.066 1.155 1.067 1.166.07.86-1.119-.343-1.983.944-1.176 1.752.25.249.35.719.226 1.043-.207.54 1.127 1.167 2.514 1.184.305.003 1.026-.758 1.604-1.692.959-1.552.984-1.763.296-2.451-.689-.689-.687-.803.023-1.322.511-.374.809-1.374.872-2.928l.095-2.359-2.297-.735c-1.847-.59-2.395-.617-2.797-.133zm9.508-.031c-.361.435-.389.772-.079.963.262.163.343.642.18 1.067-.196.51.172 1.146 1.088 1.878l1.383 1.107-1.253.003c-.723.001-1.38.332-1.552.781-.353.92-.396.865 1.395 1.799l1.41.735-1.246.003c-.685.001-1.5.31-1.812.686-.471.567-.279.737 1.132 1.002 2.023.379 2.82 1.271.952 1.065-.726-.08-1.388.118-1.505.45-.147.418.432.592 1.965.592 1.618 0 2.444-.271 3.235-1.061.946-.947.971-1.078.236-1.22-.616-.118-.751-.45-.536-1.309.199-.792.089-1.155-.355-1.165-.428-.01-.366-.176.186-.497.899-.524 1.149-2.333.324-2.333-.279 0-.381-.397-.227-.881.417-1.313-.131-2.308-1.859-3.376-1.836-1.135-2.322-1.181-3.062-.289zm44.308.444c-.48.352-.722.885-.536 1.186.401.649 1.704.733 1.704.111 0-.24.129-.773.287-1.186.353-.918-.284-.967-1.455-.111zm62.829 1.686c-1.803 2.533-.996 3.412 1.71 1.861l1.814-1.04-1.117 1.237c-1.246 1.381-1.024 2.254.576 2.254.584 0 1.313.251 1.618.556.426.426.866.417 1.873-.039l1.316-.595-1.355 1.423c-1.415 1.486-1.349 2.448.17 2.448.491 0 1.03.224 1.2.497.168.273.661.453 1.094.401.433-.053 1.214.063 1.736.257 1.997.744 2.886 1.108 4.112 1.687.696.329 1.803.463 2.46.298.655-.164 1.318-.094 1.473.156.155.251.621.325 1.035.166.634-.243.574-.427-.37-1.154-.619-.476-1.351-.87-1.629-.875-.642-.014-2.821-2.358-3.204-3.448-.171-.487-.775-.829-1.46-.829-1.159 0-2.07-1.399-1.505-2.313.44-.712-1.036-1.58-2.109-1.239-.653.207-1.325.029-1.922-.511-.504-.457-1.056-.691-1.226-.52-.171.17-.601-.105-.956-.611-.602-.86-.777-.876-2.65-.238-1.599.544-1.837.553-1.175.042 1.006-.777 1.063-1.248.151-1.248-.373 0-1.12.62-1.66 1.377zm-134.445 1.586c-.121.327-.423 1.66-.67 2.963-.365 1.927-.316 2.473.26 2.915.522.401.556.597.126.74-.388.129-.451.504-.187 1.115.218.505.354 1.186.301 1.512-.059.363.509.618 1.466.657 1.293.054 1.357.101.377.277-2.216.398-2.162 1.081.084 1.081 2.907 0 3.467-.73 3.005-3.92-.197-1.364-.341-3.073-.32-3.797.065-2.2-3.796-5.279-4.442-3.543zm40.496 1.372-.05 1.591-.515-1.303c-.613-1.551-2.229-1.798-2.229-.341 0 2.106 1.341 4.164 3.559 5.464 1.785 1.046 2.301 1.175 2.621.657.328-.531.559-.502 1.295.165.993.898 2.007 1.068 2.007.336 0-.261.617-.474 1.371-.474.792 0 1.489-.306 1.649-.723.192-.501.636-.632 1.447-.429 1.142.287 1.158.253.692-1.439-.264-.953-.386-1.986-.273-2.297.114-.31.364.236.557 1.214.383 1.938 1.198 2.427 1.187.711-.012-1.665-.764-2.463-2.399-2.545-1.113-.056-1.564.156-1.737.82-.313 1.194-1.072 1.146-1.072-.067 0-1.117-1.058-1.662-2.252-1.16-1.642.689-2.963.533-2.963-.351 0-.465-.302-.845-.672-.845-.37 0-1.01-.129-1.422-.288-.587-.225-.761.058-.801 1.304zm23.002.264c-.776 1.582-.903 1.671-1.047.735-.192-1.256-1.029-1.44-1.08-.237-.02.456-.126 1.316-.237 1.911-.276 1.486 1.126 1.982 2.124.752.593-.731 1.237-.903 3-.799 2.031.119 2.273.023 2.534-1.017.396-1.578-.155-2.284-1.515-1.942-.771.193-1.098.094-1.015-.306.067-.325-.329-.661-.88-.746-.758-.116-1.214.282-1.884 1.649zm-23.914 2.276c0 .26-.207.154-.46-.237-.252-.392-.459-.925-.459-1.186 0-.26.207-.154.459.237.253.391.46.925.46 1.186zm77.898 1.763c-1.967 1.44-2.278 2.565-.587 2.123.496-.13.98.076 1.136.482a.758.758 0 0 0 .973.439c.386-.149.651-.044.589.231-.121.537.099.681 3.558 2.332 1.653.787 2.123 1.225 1.772 1.647-.656.791.635 1.815 1.815 1.441a1.43 1.43 0 0 1 1.508.441c.42.505.78.581 1.18.249.405-.336.821-.209 1.399.43.684.756 1.055.827 2.215.422 1.004-.35 1.58-.33 2.064.071.487.405.931.418 1.618.05.521-.279 1.367-.507 1.88-.507.832 0 .784-.159-.445-1.474-1.368-1.464-1.391-1.47-2.988-.712-2.026.961-2.461.966-1.673.016.531-.64.402-.919-.89-1.931-.831-.65-1.511-1.6-1.511-2.111 0-.824-.383-1.111-2.134-1.595-.26-.072-.63-.105-.82-.073-.191.032-.69-.432-1.109-1.03l-.762-1.089-1.705 1.006c-1.095.645-1.489.746-1.102.279.703-.846.24-1.891-.682-1.537-.348.133-.699.074-.781-.131-.082-.206-.683-.5-1.335-.653-.866-.204-1.723.115-3.183 1.184zm-126.397.964c-1.032.756-.6 3.673.545 3.673.594 0 .558.14-.178.702-.797.607-.825.766-.21 1.178.392.261 1.086.479 1.542.483.456.004.83.22.83.481s-.32.474-.712.474c-.391 0-.711.213-.711.474 0 .707 1.07.574 2.297-.286.597-.418.98-1.032.853-1.365-.127-.332-.01-.826.262-1.098.635-.634-.49-3.306-1.507-3.582-.514-.14-.465-.212.168-.251.734-.045.785-.178.297-.766-.718-.866-2.375-.922-3.476-.117zm51.386 3.405c-2.166.757-2.259 1.324-.462 2.836 1.822 1.533 2.399 1.404 2.933-.656.574-2.217-.26-2.954-2.471-2.18zm36.462 1.577c-.383.46-1.204 1.871-1.824 3.135-.925 1.888-1.01 2.374-.474 2.713.856.542 1.244.531 1.6-.046.162-.261.707-.474 1.214-.474.506 0 .92-.194.92-.43s.405-.324.901-.194c1.263.33 1.957-2.588.814-3.424-.422-.308-.767-.91-.767-1.338 0-1.031-1.505-.994-2.384.058zm26.562 2.032c-.913 1.034-1.739 2.117-1.836 2.406-.325.968 1.038 1.31 2.405.604.951-.492 1.59-.555 2.217-.22.485.26 1.028.326 1.206.148.179-.179.191.023.028.448-.397 1.036 1.308 1.565 2.549.79.749-.467 1.086-.465 1.664.015.513.426.974.462 1.579.124.624-.35 1.065-.287 1.64.234.701.634.949.629 2.257-.048 1.11-.574 1.701-.637 2.414-.255 1.143.612 1.208.112.177-1.36-.468-.668-1.093-1.009-1.603-.876-.46.121-1.83-.285-3.045-.9-1.216-.616-2.36-1.085-2.546-1.041-.185.043-1.111-.307-2.058-.779l-1.722-.857-2.07 1.402c-3.325 2.252-3.619 2.389-2.804 1.3a39.47 39.47 0 0 1 1.623-1.988c.696-.795.763-1.061.259-1.047-.371.011-1.422.865-2.334 1.9zM69.176 170.61c-.306.195-.626.977-.71 1.739-.128 1.143.052 1.436 1.03 1.68l1.186.295-1.186.379c-1.022.327-1.063.411-.3.611.488.128 1.216-.097 1.62-.5.601-.602.623-.864.124-1.465-.334-.403-.505-1.267-.38-1.92.228-1.193-.302-1.507-1.384-.819zm64.93 1.131c.337.826.924 1.646 1.305 1.822.381.177 1.119.574 1.641.883.521.31 1.308.685 1.748.834.44.149 1.005.859 1.255 1.578.429 1.23 2.578 2.464 2.213 1.27-1.675-5.478-1.697-5.517-3.089-5.517-.914 0-1.445-.293-1.639-.904-.35-1.101-1.709-1.701-2.169-.957-.242.392-.423.396-.658.016-.72-1.165-1.179-.426-.607.975zm-30.959 2.539c-.329.397-.68 1.464-.78 2.371-.16 1.45-.051 1.651.896 1.663.96.013.987.068.248.498-1.354.789-.951 1.383.948 1.399 1.594.013 1.68.073.83.58-.522.311-1.159.572-1.416.578-.257.007-.542.401-.634.876-.156.812-.081.819 1.284.113 2.201-1.138 3.337-2.587 3.231-4.12-.052-.747-.255-1.359-.45-1.359-.196-.001-.356-.428-.356-.949 0-.559-.316-.948-.769-.948-.63 0-.663-.129-.179-.712.503-.605.378-.711-.832-.711-.782 0-1.691.325-2.021.721zm-39.458.027c-.196.197-.356.792-.356 1.323 0 .697.144.82.519.445.285-.285.445-.881.355-1.322-.09-.443-.322-.643-.518-.446zm31.537.254c-1.408.407-3.129 2.317-2.087 2.317.245 0 .335.427.199.948-.216.824-.007.953 1.584.986 1.789.036 1.802.048.53.513-.717.262-1.337.725-1.376 1.029-.24 1.832-.122 1.982 1.727 2.213l1.9.237-1.54.932c-.848.512-1.54 1.099-1.54 1.304 0 .724.811.352 2.591-1.187 1.24-1.071 1.832-1.995 1.9-2.963.052-.772.272-1.809.486-2.303.266-.611.164-1.066-.32-1.422-.391-.289-.622-.789-.513-1.112.21-.622-.961-2.049-1.622-1.977-.214.024-1.078.242-1.92.485zm18.396.158c-1.168.313-2.401 1.021-2.784 1.598-.648.976-.616 1.035.556 1.035 1.516 0 1.537.18.182 1.535-.967.967-.986 1.076-.212 1.225.682.131.738.298.283.847-.768.925-.248 1.323 1.728 1.323h1.655l-1.196 1.11c-1.817 1.685-1.435 1.755.879.162 2.433-1.674 3.707-3.856 1.835-3.143-.665.253-.712.197-.237-.281.906-.913.748-1.99-.237-1.616-.665.254-.712.198-.237-.281.815-.821.744-1.829-.129-1.829-.632 0-.626-.148.054-1.185.854-1.304.858-1.303-2.14-.5zm6.6.974c0 .391.228.711.506.711.291 0 .378.404.204.951-.225.71-.023 1.063.798 1.392.775.311.863.45.298.471-.441.017-.933.244-1.095.504-.177.287.474.474 1.646.474 1.384 0 2.028-.229 2.247-.801.172-.447.061-.883-.252-.987-.307-.103-.559-.571-.559-1.041 0-.921-1.881-2.385-3.065-2.385-.4 0-.728.32-.728.711zm-35.079.217c-1.156.292-1.992 1.916-.985 1.916.28 0 .074.434-.457.965-1.009 1.01-.88 1.879.277 1.879.42 0 .635.406.564 1.066-.083.789.167 1.105.964 1.219l1.077.155-1.077.897c-.592.494-.954.906-.805.915.72.041 4.706-1.543 4.706-1.872 0-.682-1.349-2.989-1.983-3.392-.441-.279-.311-.397.443-.403 1.104-.007 1.31-.709.783-2.673-.28-1.047-1.272-1.237-3.507-.672zm98.013 1.295c-.457.119-.83.372-.83.562 0 .189-.961 1.334-2.136 2.543-1.285 1.322-1.934 2.323-1.628 2.512.28.172.635.188.789.033.154-.154.553-.054.886.223.416.345.89.351 1.508.02.496-.265 1.366-.361 1.935-.212.674.176 1.729-.185 3.04-1.039l2.006-1.309-1.155 1.258c-1.424 1.549-.782 2.687 1.045 1.855.83-.378 1.323-.34 1.997.153.761.556 1.044.556 1.895-.001.852-.559 1.135-.557 1.914.012.502.368 1.202.558 1.554.423.353-.135 1.019-.043 1.482.205.621.332 1.213.177 2.265-.595 4.865-3.57 6.307-4.734 6.307-5.094 0-.396-3.088.704-4.03 1.436-.654.508-3.986.24-4.595-.37-.274-.274-.771-.393-1.104-.265-.333.128-.746.004-.918-.275-.478-.773-2.201-.603-3.293.324-.768.652-.851.665-.387.063.925-1.201-.467-2.165-2.07-1.434-.865.394-1.463.404-2.151.036-.729-.391-1.224-.333-2.106.245-.635.416-1.154.55-1.154.299 0-.251.217-.591.482-.755.265-.164.359-.496.209-.739-.285-.461-.402-.469-1.757-.114zm-105.226.794c-.754.572-1.797 2.673-1.797 3.619 0 .226.416.543.924.704.613.195.825.552.629 1.063-.225.586-.097.693.537.449.458-.175 1.135-.319 1.505-.319 1.113 0 .618-5.652-.526-5.993-.254-.076-.826.139-1.272.477zm-6.656 2.063c-.967.146-1.302.465-1.296 1.232.01 1.495.684 2.34 1.709 2.143.659-.126.916-.631.99-1.943.053-.974.053-1.74 0-1.701-.055.039-.686.16-1.403.269zm-6.715.489c-.139.138-.138.435 0 .659.332.538 2.093.529 2.093-.01 0-.487-1.722-1.021-2.093-.649zm44.167 7.743c-1.142.664-1.041 1.811.2 2.269.681.253.841.497.474.724-1.11.686-.617 2.195.81 2.48 1.066.214 1.312.476 1.123 1.198-.211.808-.068.884 1.124.602 1.76-.416 2.204-.844 1.997-1.924-.102-.525-.737-.998-1.586-1.179-1.155-.248-1.214-.314-.316-.36 1.51-.077 1.274-2.121-.27-2.34-.894-.127-.987-.299-.576-1.067.43-.804.329-.914-.83-.901-.726.008-1.694.232-2.15.498zm-9.482 3.165c-1.408.874-1.899 3.434-.658 3.434.442 0 .57.394.407 1.248-.224 1.168-.142 1.235 1.25 1.031 1.36-.2 1.427-.151.778.566-.39.432-.71 1.053-.71 1.38 0 .548 3.567-1.913 4.388-3.028.487-.661.229-2.381-.358-2.39-.261-.004-.753-.184-1.094-.4-.341-.216-1.103-.271-1.694-.123-.965.242-1.053.126-.867-1.141.24-1.639.26-1.631-1.442-.577zm59.838 8.232c1.876 2.243 1.931 3.487.133 3.038-2.552-.637-4.4-3.391-4.372-6.517l.015-1.556 1.394 1.659c.766.913 2.04 2.432 2.83 3.376zm-69.831-1.673c-1.538 1.128-2.2 1.916-2.015 2.398.151.395.275.807.275.916 0 .109.496.198 1.103.198.956 0 1.075.189.894 1.422-.243 1.658-.335 1.63 2.304.699l2.05-.723-1.093 1.163c-2.011 2.142-.783 2.182 1.536.05 1.48-1.36 2.224-2.403 2.105-2.95-.102-.466-.439-.793-.75-.728-.31.065-.564-.189-.564-.565 0-1.365-.987-1.361-5.6.029-.44.133-.16-.124.623-.569 1.549-.883 2.114-1.535 2.126-2.45.01-.906-.506-.715-2.995 1.11zm22.438 3.175c-1.68.847-1.827 2.577-.27 3.169.67.254 1.218.682 1.218.948 0 .631 1.948.623 3.621-.012 1.301-.495 1.305-.492.429.477-.486.536-.725 1.134-.53 1.328.513.512 2.643-2.134 2.643-3.284 0-.787-.231-.933-1.185-.751-.987.189-1.185.044-1.185-.865 0-1.393-.672-1.803-1.887-1.153-.646.346-.958.354-.958.022 0-.638-.445-.61-1.896.121zM80.4 202.92c-1.173.449-2.077 1.074-2.008 1.391.068.317-.084.964-.338 1.439-.779 1.456.455 2.629 2.363 2.248l1.581-.317-1.014 1.08c-.623.663-.87 1.314-.638 1.688.296.48.917.396 2.94-.398l2.566-1.006-1.616 1.676c-.889.921-1.796 1.565-2.015 1.429-.22-.136-.399.086-.399.493 0 1.11.847.899 2.895-.723 1.389-1.101 1.846-1.805 1.846-2.845 0-.883-.245-1.382-.678-1.382-.373 0-.747-.48-.83-1.067-.131-.925-.4-1.051-2.032-.95-1.823.112-1.848.094-.829-.62 1.017-.712 1.42-2.299.695-2.736-.196-.119-1.316.152-2.489.6zm97.925 3.397c.145.235.134.428-.024.428-.433 0-3.086-1.417-3.086-1.647 0-.343 2.831.768 3.11 1.219zm-25.52-.234c-.158.157-.567.174-.908.037-.379-.151-.266-.263.286-.286.5-.021.779.091.622.249zm21.936.212c.509.348.173.395-1.185.167-2.352-.393-2.731-.668-.909-.658.761.004 1.703.225 2.094.491zm-74.43 1.308c0 .211-.657 1.056-1.46 1.877-2.514 2.571-1.31 3.885 2.053 2.241 1.191-.582 1.303-.559 1.303.275 0 1.101.547 1.143 2.394.188 1.254-.648 1.399-.648 1.399 0 0 .911.464.915 1.752.013.777-.544 1.061-.572 1.214-.119.237.703 1.775-2.093 1.775-3.227 0-.531-.251-.689-.772-.49-.423.163-1.057.058-1.407-.232-.483-.401-.952-.28-1.944.5-1.299 1.023-1.311 1.023-1.733.078-.418-.938-.451-.935-2.253.202-1.005.634-1.902 1.154-1.992 1.154-.091 0-.071-.64.044-1.422.115-.782.078-1.422-.082-1.422s-.291.173-.291.384zm63.654.401c-.321.13-.961.138-1.423.017-.461-.12-.198-.226.584-.236.782-.009 1.159.089.839.219zM69.113 209.4c-1.543.925-2.006 1.473-1.896 2.247.122.853.443 1.014 1.927.969 1.51-.046 1.66.034.989.524-.894.654-.57 2.138.468 2.138.448 0 .587.38.434 1.185-.273 1.427-.288 1.426 2.728.237 1.323-.521 2.664-.941 2.98-.933.588.015-1.197 1.711-2.766 2.627-.526.307-.675.629-.377.813.272.168 1.38-.346 2.462-1.142 2.126-1.564 2.599-3.185 1.046-3.591-.507-.132-.987-.699-1.067-1.259-.105-.741-.426-.98-1.175-.876-.768.105-1.07-.136-1.186-.949-.122-.867-.408-1.06-1.397-.945-1.103.128-1.217.007-1.011-1.067.127-.666.153-1.209.057-1.207-.095.003-1.092.556-2.216 1.229zm110.547.758c-.321.519-.341.501-1.131-1.043-.606-1.182-.605-1.183.398-.292.554.491.883 1.092.733 1.335zm1.152-.794c-.146.146-.411-.117-.589-.584-.257-.676-.203-.73.265-.266.325.322.47.705.324.85zm-7.493 1.173c-.392.253-.925.46-1.186.46-.26 0-.154-.207.237-.46s.925-.459 1.186-.459c.26 0 .154.206-.237.459zm-30.213.913c.167.64.042.837-.419.66-.362-.139-.657-.549-.657-.912 0-.986.801-.798 1.076.252zm-.625 2.169c.005.26-.199.154-.451-.237-.307-.474-.462-.514-.467-.119-.004.326-.578.593-1.275.593h-1.268l1.104-1.176c1.029-1.094 1.147-1.119 1.727-.355.342.451.626 1.033.63 1.294zm-5.056.874c-.352.569-1.072-.668-1.06-1.823.008-.839.084-.813.662.231.359.649.538 1.365.398 1.592zm32.703-1.274c-.321.129-.961.137-1.423.017-.461-.12-.198-.227.584-.236.782-.01 1.159.089.839.219zm-4.869.859c0 .089-.96.49-2.133.889-1.772.604-2.133.617-2.133.077 0-.358.586-.719 1.303-.802 2.633-.306 2.963-.324 2.963-.164zm-8.621.662c.368.233-1.651.531-4.915.726-3.047.182-5.656.214-5.799.072-.143-.143.855-.26 2.217-.26 1.531 0 2.366-.181 2.185-.474-.36-.582 5.403-.641 6.312-.064zm-67.823 2.296c-.978 1.155-1.778 2.411-1.778 2.793 0 1.176 1.335 1.283 3.09.248 1.488-.879 1.624-.894 1.222-.142-.256.478-.278 1.13-.05 1.498.323.523.732.401 2.068-.618 2.158-1.645 2.346-1.602 1.426.327-.534 1.121-.624 1.842-.3 2.42.411.736.633.646 2.081-.845l1.621-1.67-.103 1.975c-.056 1.086.002 1.548.131 1.026.129-.521.56-1.85.959-2.951 1.088-3.009.364-3.419-1.79-1.012l-1.849 2.067.912-1.797c1.434-2.823.52-4.644-1.44-2.87-.782.707-.867.71-.867.028 0-1.167-.877-1.442-2.081-.654-1.04.681-1.082.663-.883-.377.353-1.846-.508-1.645-2.37.554zm50.607-1.758c.161.261.067.474-.209.474s-.502-.213-.502-.474.094-.474.209-.474c.115 0 .341.213.502.474zm31.052.185c0 .367-7.654 2.241-8.439 2.067-.443-.098 1.008-.629 3.224-1.179 4.137-1.027 5.215-1.211 5.215-.888zm-15.082 1.737c-.604.242-.986.621-.849.842.137.221-.489.43-1.392.464-.902.034-1.64-.145-1.64-.398s.521-.46 1.157-.46c.637 0 1.289-.213 1.451-.474.161-.261.76-.46 1.331-.444 1.031.03 1.031.034-.058.47zm-9.096 1.396c.632.409.632.46 0 .46-.391 0-1.031-.207-1.422-.46-.632-.408-.632-.459 0-.459.391 0 1.031.207 1.422.459zm70.748.049c-.191.175-4.508 2.446-9.592 5.045-11.081 5.666-22.453 12.514-22.685 13.659-.12.59.048.74.593.531.673-.258.759.445.762 6.213.004 6.216.349 10.405 1.415 17.17.267 1.695.795 5.322 1.174 8.059.973 7.042 1.541 9.745 2.389 11.385.802 1.551 4.561 4.558 6.278 5.022.586.159 1.06.426 1.052.593-.007.167-1.33 1.051-2.94 1.963-1.61.913-4.324 2.777-6.031 4.142-1.707 1.366-3.272 2.486-3.478 2.489-.206.003-1.27-.451-2.365-1.009-1.094-.559-3.043-1.374-4.33-1.811-2.026-.688-2.429-1.044-3.005-2.658-.705-1.976-1.714-7.572-2.216-12.293-.261-2.45-1.198-7.956-1.958-11.497-.126-.587-.545-1.066-.931-1.066-.938 0-.902 1.517.195 8.377a492.504 492.504 0 0 1 1.472 9.874c.851 6.322 1.912 9.33 3.595 10.188.761.389 2.594 1.354 4.072 2.147l2.688 1.44-2.336 1.646a360.545 360.545 0 0 0-7.706 5.568c-2.286 1.695-2.402 1.689-6.723-.381-1.049-.503-2.622-1.057-3.495-1.232-1.277-.255-1.755-.697-2.446-2.261-.931-2.108-2.548-9.707-3.038-14.27-.168-1.565-.827-6.411-1.465-10.77-.637-4.359-1.159-8.146-1.159-8.415 0-.269-.336-.489-.746-.489-.793 0-.752 1.239.283 8.533.24 1.695.782 5.855 1.204 9.245.867 6.969 2.238 14.283 3.193 17.044.595 1.719.973 2.007 4.997 3.83 2.394 1.084 4.461 2.078 4.592 2.21.131.131-.971 1.071-2.451 2.088a615.853 615.853 0 0 0-4.867 3.385 219.29 219.29 0 0 1-4.072 2.796c-1.043.694-2.022 1.454-2.176 1.689-.311.476-1.354.309-5.172-.829a515.344 515.344 0 0 0-4.823-1.407c-3.229-.919-4.139-1.523-4.463-2.968-.16-.709-.473-2.037-.694-2.949-1.513-6.217-2.73-15.817-3.756-29.63-.581-7.836-.931-10.193-1.512-10.193-.838 0 .529 23.995 1.728 30.341 3.007 15.911 2.81 15.26 4.85 15.982.727.258 2.068.744 2.981 1.08.913.337 2.406.653 3.318.703.913.049 2.466.358 3.451.686l1.792.595-2.029 1.53c-1.115.841-4.136 3.009-6.712 4.818l-6.614 4.645c-1.719 1.208-2.202 1.326-4.383 1.07-1.349-.159-3.065-.608-3.815-1-.75-.391-1.794-.712-2.32-.714-1.868-.005-4.424-2.246-5.012-4.393-1.134-4.14-2.196-15.649-2.533-27.437-.301-10.561-1.735-18.096-3.171-16.66-.21.21.004 2.289.477 4.62.509 2.515.891 6.657.941 10.186.132 9.491 1.018 21.676 1.946 26.748.741 4.052 1.038 4.83 2.212 5.785 1.638 1.334 8.715 4.467 10.089 4.467.542 0 .985.199.985.443 0 .549-6.283 4.907-12.45 8.637-3.782 2.287-4.796 2.709-5.54 2.311-.501-.268-1.531-.487-2.29-.487-1.799 0-9.37-2.549-10.395-3.499-.53-.491-1.374-10.591-2.284-27.316-.5-9.178-1.552-19.319-2.112-20.366-.942-1.76-1.26-.641-.896 3.153.578 6.027 1.305 16.598 2.097 30.487.41 7.17.928 13.491 1.152 14.047.556 1.375 5.978 3.943 9.36 4.434 4.929.716 4.932.699-1.171 4.866-3.066 2.092-6.316 4.416-7.223 5.162-.907.747-1.867 1.351-2.134 1.342-.266-.009-1.727-2.622-3.246-5.808-4.38-9.186-6.084-11.013-13.655-14.646l-3.144-1.508-.276-2.878c-.153-1.582-.401-5.544-.553-8.804-.484-10.407-1.901-18.962-3.14-18.962-.293 0-.376.355-.194.828.791 2.063 1.194 5.638 1.403 12.446.124 4.041.373 9.503.554 12.138l.33 4.789-3.139-.789c-1.726-.435-3.285-.937-3.464-1.116-.179-.18-.77-.329-1.314-.333-1.854-.014-2.127-.615-2.368-5.224-.392-7.45-2.81-16.645-4.159-15.811-.214.132-.186.618.061 1.081 1.217 2.272 3.51 19.013 2.606 19.013-1.857 0-11.27-2.172-13.245-3.057a92.495 92.495 0 0 0-2.608-1.112c-3.126-1.254-4.728-2.065-5.022-2.54-.69-1.115 7.221-7.6 13.793-11.308.782-.441 3.875-2.195 6.874-3.898a458.214 458.214 0 0 1 10.666-5.839c2.868-1.509 7.114-3.882 9.434-5.273 2.32-1.391 4.3-2.529 4.397-2.529.098 0 1.505-.825 3.13-1.834 3.966-2.465 16.06-9.298 21.913-12.38 2.608-1.373 5.701-3.075 6.874-3.783a470.442 470.442 0 0 1 5.689-3.339 326.46 326.46 0 0 0 6.507-3.869c1.624-1 3.059-1.817 3.191-1.817.132 0 1.406-.747 2.833-1.659 1.427-.913 2.791-1.66 3.033-1.66.241 0 .702-.317 1.024-.705.473-.569.445-.759-.141-.985-.704-.269-2.901.784-6.909 3.314-1.063.671-2.014 1.221-2.111 1.221-.098 0-3.013 1.707-6.479 3.792-3.465 2.086-6.383 3.793-6.485 3.793-.101 0-1.83.93-3.842 2.067a602.8 602.8 0 0 1-6.976 3.871 604.581 604.581 0 0 0-6.163 3.405c-1.565.881-3.218 1.723-3.674 1.873-.456.15-.83.461-.83.691 0 .23-.194.419-.43.419-.238 0-3.82 1.995-7.96 4.434-4.14 2.438-8.8 5.14-10.354 6.004l-4.723 2.621a399.049 399.049 0 0 1-5.452 2.932c-4.75 2.512-13.871 7.653-17.292 9.746C47.204 316.058 42 320.731 42 322.567c0 1.149.749 2.123 1.66 2.161.451.019 4.86 1.755 8.202 3.23.861.38 4.12 1.181 7.244 1.779 3.124.598 5.786 1.193 5.916 1.323.13.13.43 2.346.666 4.924.9 9.822 4.195 29.484 5.569 33.243.992 2.715 1.534 3.094 3.469 2.419 1.567-.546 7.93-4.327 10.652-6.331.782-.575 2.698-1.639 4.257-2.363 1.56-.724 3.652-1.857 4.65-2.517 1.448-.958 2.057-1.113 3.004-.765 1.13.416 1.464 1.02 3.992 7.212.383.937.23 1.21-1.111 2.003-.855.504-2.187 1.767-2.959 2.807-1.52 2.048-5.108 3.859-7.9 3.988-1.49.069-1.561-.006-1.53-1.587.017-.913.205-2.3.416-3.082.309-1.14.265-1.31-.218-.857-.85.797-1.17 4.997-.48 6.287.508.947.807 1.03 2.705.745 3.377-.506 6.081-1.905 8.295-4.288 1.127-1.214 2.563-2.409 3.191-2.656.991-.39 1.329-.223 2.551 1.26.816.99 2.53 2.2 4.073 2.875 1.465.641 4.528 2.066 6.806 3.166 4.125 1.993 4.143 2.009 4.148 3.801.005 1.294.347 2.141 1.223 3.016 1.465 1.466 3.001 1.31 5.885-.599l1.91-1.264 4.146.815c3.417.671 12.894 2.975 15.776 3.836.584.175.691.846.545 3.426-.202 3.592.513 4.986 2.828 5.51 1.264.286 1.375.224 7.64-4.257l1.783-1.275 3.162.78c1.739.429 5.383 1.473 8.097 2.319l4.934 1.538-.307 2.333c-.169 1.284-.348 2.529-.399 2.769-.05.239.499.886 1.22 1.438 1.289.987 1.336.99 2.844.129.844-.481 1.854-1.222 2.245-1.647 2.222-2.414 2.459-2.478 5.353-1.461 1.476.518 3.168.946 3.761.95 1.336.008 3.471.768 9.849 3.503 4.718 2.024 4.999 2.223 5.383 3.826.559 2.334 1.631 2.802 4.327 1.887 1.627-.553 2.559-.621 3.7-.271.838.258 2.483.717 3.657 1.022 2.71.703 3.318 1.214 3.318 2.789 0 2.732 2.188 3.161 4.865.955l1.762-1.453 3.594.987c9.333 2.56 14.194.885 15.955-5.499l.542-1.965 3.059-.195c4.738-.301 5.375-1.249 8.455-12.588l1.321-4.862 1.675.322c.922.176 2.996.324 4.609.328 2.534.006 3.06-.149 3.86-1.137.866-1.069 3.13-7.733 4.394-12.927.318-1.311.778-2.193 1.083-2.078.291.11 2.295.581 4.453 1.046l3.923.845 1.214-1.138c1.657-1.553 2.675-4.004 4.21-10.145.717-2.868 1.346-5.265 1.397-5.326.051-.06 1.998.417 4.328 1.061 2.329.644 4.486 1.174 4.793 1.178.734.007 3.394-7.125 4.886-13.1l.491-1.966 3.906 1.033c2.149.568 4.227.967 4.618.887.391-.081 1.177-.835 1.748-1.676.995-1.467 3.479-8.391 4.163-11.602.355-1.671.43-1.694 3.525-1.096 3.203.618 4.578-.068 5.217-2.603.291-1.155.664-3.701.83-5.659.325-3.848.426-3.947 3.066-2.968 1.455.539 2.958.648 6.011.432 1.421-.1 2.862-3.271 3.449-7.588.75-5.516.711-5.442 2.71-5.121.965.155 2.395.406 3.177.559 1.184.231 1.71-.004 3.14-1.405.945-.926 1.836-2.272 1.981-2.991.236-1.174.468-1.311 2.256-1.333 2.298-.03 3.478-1.134 4.2-3.932.821-3.18 1.836-12.139 1.586-14.008-.217-1.634.301-5.079 1.832-12.175.257-1.193.402-2.393.321-2.666-.08-.272 1.688-2.496 3.929-4.941 3.044-3.322 4.158-4.892 4.404-6.21l.33-1.764-3.935-1.887c-8.566-4.108-20.964-7.622-26.891-7.622-2.626 0-5.178 3.086-7.842 9.482a217.575 217.575 0 0 1-1.926 4.503c-.354.782-1.415 3.835-2.358 6.783-1.001 3.13-2.016 5.477-2.439 5.639-.398.153-2.783-.279-5.301-.959-6.219-1.681-9.315-2.391-15.717-3.608-8.492-1.614-10.473-2.007-13.274-2.64a471.01 471.01 0 0 0-5.452-1.188 107.859 107.859 0 0 1-5.925-1.473c-1.695-.482-4.789-1.205-6.875-1.607-2.085-.403-4.752-1.136-5.925-1.628a219.295 219.295 0 0 0-5.686-2.241l-3.552-1.346-.518-2.844c-.285-1.564-.862-4.017-1.282-5.451-.421-1.434-.98-4.207-1.243-6.163-1.67-12.431-2.593-16.258-4.255-17.657-1.253-1.053-8.676-3.335-14.99-4.606a368.27 368.27 0 0 1-6.874-1.483c-4.349-.982-13.544-1.849-14.112-1.331zm-68.032.712c-.157.157-.566.174-.908.037-.378-.151-.266-.263.286-.286.5-.02.78.091.622.249zm-81.772.834c-1.223.606-1.948 2.298-1.105 2.579.414.138.42.35.022.829-.855 1.03-.035 1.764 1.604 1.436 1.155-.231 1.345-.17.891.284-.318.318-.578.897-.578 1.287 0 .459.587.141 1.66-.898.912-.885 1.659-1.836 1.659-2.113 0-.278-.534-1.08-1.186-1.783-.651-.703-1.185-1.5-1.185-1.772 0-.588-.348-.558-1.782.151zm163.053 1.041c2.525.636 5.061 1.157 5.636 1.157 1.002 0 1.033.127.73 2.963-.175 1.63-.522 8.616-.773 15.526-.249 6.91-.741 14.474-1.092 16.811-.713 4.751-.005 3.856-7.38 9.328l-3.98 2.952-2.544-1.376c-4.729-2.558-4.787-2.647-5.874-8.989-2.118-12.361-2.813-17.962-4.033-32.537l-.303-3.618 2.534-1.209c1.394-.664 2.961-1.551 3.482-1.97 1.286-1.033 7.4-.6 13.597.962zm-148.632 3.032c-2.49 2.757-2.31 4.658.311 3.262.907-.483.961-.461.435.177-.33.401-.466 1.082-.3 1.514.272.71.466.688 2.023-.225l1.722-1.01-1.11 1.191c-.61.655-1.037 1.528-.948 1.941.139.646.328.665 1.347.136a24.15 24.15 0 0 1 2.03-.937c.81-.308.81-.275 0 .807-.465.62-1.005 1.03-1.2.911-.196-.119-.356.01-.356.286 0 1.021 1.367.453 2.78-1.157.844-.961 1.342-1.959 1.184-2.371-.324-.844-.432-.859-1.625-.22-1.04.557-1.135.327-.417-1.014.66-1.231.126-3.038-.695-2.357-.44.366-.58.223-.553-.567.028-.795-.23-1.057-1.044-1.057-.595 0-1.254-.277-1.465-.616-.281-.451-.845-.104-2.118 1.306zm163.156.262 2.995.88-.31 4.773c-.171 2.625-.398 5.306-.506 5.958-.107.652-.411 6.908-.675 13.903-.264 6.994-.667 13.547-.895 14.563-.261 1.16-.976 2.318-1.925 3.116-6.062 5.102-5.863 4.979-7.605 4.678-.912-.158-3.518-.741-5.791-1.297l-4.132-1.01 1.399-1.25c.77-.687 2.765-2.19 4.433-3.341 4.681-3.227 4.877-4.076 5.575-24.147.286-8.213.549-15.639.584-16.502.064-1.537.105-1.565 1.962-1.387 1.043.101 3.244.579 4.891 1.063zm-34.996 4.144c-.003 8.876 2.136 26.371 4.332 35.438.415 1.714 1.483 2.612 6.221 5.226l2.255 1.245-2.196 1.576-2.195 1.577-3.852-1.093c-6.982-1.98-7.204-2.116-8.028-4.887-.402-1.352-.86-3.846-1.018-5.541-.67-7.202-.843-8.682-1.918-16.355-.622-4.433-1.266-9.553-1.432-11.378-.367-4.021-.611-4.978-1.268-4.978-.792 0-.084 9.624 1.516 20.622.685 4.705.854 6.171 1.18 10.193.159 1.955.631 5.22 1.05 7.254.726 3.529.84 3.732 2.465 4.43 2.982 1.28 6.883 2.514 7.986 2.526 1.651.018 1.275.747-1.186 2.3a107.558 107.558 0 0 0-3.911 2.596c-4.74 3.357-7.945 5.196-9.007 5.169-.652-.017-2.618-.828-4.369-1.802-3.884-2.162-4.501-3.283-5.433-9.869-.373-2.63-1.196-8.089-1.83-12.13-1.254-7.996-1.483-10.253-1.876-18.502l-.259-5.465 2.498-1.46a367.913 367.913 0 0 0 5.817-3.501c3.583-2.205 13.522-7.533 14.104-7.559.195-.009.355 1.957.354 4.368zm41.911-1.949c.957.436 1.325 1.156 1.912 3.738.4 1.759.822 5.089.936 7.401.285 5.706 1.067 10.562 2.444 15.176.635 2.123 1.154 4.401 1.154 5.061 0 1.334 1.952 3.166 3.373 3.166.481 0 1.678.296 2.662.658.982.362 2.801 1.019 4.039 1.462 2.533.903 2.791 1.687 1.542 4.676-.994 2.381-5.023 8.97-5.905 9.658-1.357 1.06-6.543.178-16.072-2.733-1.657-.507-3.471-.93-4.03-.942-.559-.012-1.627-.282-2.372-.601l-1.356-.579 3.31-2.6c2.178-1.71 3.303-2.923 3.288-3.547-.013-.522.228-2.893.536-5.271.308-2.377.541-6.857.52-9.955-.039-5.562.111-8.459.993-19.144.247-2.999.453-5.612.457-5.808.011-.52 1.212-.434 2.569.184zm-187.149 3.656c-.472.522-.78 1.338-.682 1.814.151.742.298.682 1.034-.424 1.084-1.627.817-2.682-.352-1.39zm10.744-.235c-.208.353-.86.894-1.445 1.202-1.588.833-1.304 1.786.625 2.099 1.961.319 3.997-.314 3.997-1.242 0-.438-.487-.592-1.541-.486-.848.084-1.274.03-.948-.122.689-.32.81-2.093.142-2.093-.248 0-.621.289-.83.642zm-7.208 4.203c-.749 1.199-.14 1.821 1.259 1.284 1.292-.496 1.35-.983.202-1.7-.706-.441-.974-.364-1.46.416zm328.47 5.531c-1.004.959-1.594 2.143-1.976 3.963-.411 1.963-.725 2.552-1.29 2.418-.41-.097-1.065.033-1.456.29-.593.39-.694 1.794-.607 8.421.057 4.375.216 8.411.351 8.968.14.575.763 1.144 1.437 1.313.723.182 1.189.636 1.189 1.159 0 .473.133.993.295 1.155.163.163.354 2.598.425 5.413.071 2.814.277 7.714.459 10.89.197 3.461.148 6.097-.125 6.583-.349.625-.532.192-.79-1.877-.185-1.479-.851-4.549-1.479-6.821-.629-2.273-1.145-4.879-1.146-5.792-.003-1.975-1.537-9.272-2.979-14.169-1.526-5.186-6.437-12.379-8.451-12.379-.641 0-.977.913-1.649 4.482-.833 4.425-.831 4.559.205 10.548 1.315 7.611 2.37 13.773 2.984 17.444a89.889 89.889 0 0 0 1.149 5.564c.946 3.823.87 4.432-.631 5.056-1.374.57-3.075 2.951-3.252 4.551-.092.842 1.917 2.575 4.901 4.225 1.645.91 14.676 3.236 19.424 3.468 5.511.269 13.847-.633 18.986-2.054 2.225-.615 2.489-.825 2.487-1.979-.003-2.579-3.414-6.261-5.806-6.266-.456-.001-.829-.098-.829-.216 0-.631 1.161-2.63 1.528-2.63.235 0 .381-.374.324-.83-.114-.906.754-3.29 1.545-4.242.398-.48.697-.459 1.5.103.551.386 1.225.702 1.497.702.823 0 8.66-12.301 11.327-17.778 3.153-6.476 3.276-6.883 2.386-7.867-.449-.497-1.2-.903-1.669-.903-.811 0-.809-.094.05-2.012.859-1.919.863-2.078.082-3.437-.929-1.618-3.199-2.856-6.067-3.311-1.934-.308-1.96-.292-2.262 1.32-.318 1.694-2.054 5.433-3.119 6.716-.849 1.023-5.599 10.387-6.736 13.28-.515 1.307-1.224 2.698-1.577 3.091-.353.392-1.427 2.312-2.387 4.266-1.793 3.648-4.527 8.169-4.785 7.911-.158-.157 2.258-6.027 4.816-11.705 1.897-4.209 2.929-8.022 2.291-8.464-.244-.168-.49-.944-.546-1.722-.148-2.045-1.942-3.62-4.443-3.902-1.526-.172-2.253-.038-2.697.498-.335.403-.86.638-1.167.523-.342-.13-1.417 1.941-2.783 5.361l-2.226 5.572-.026-3.65c-.021-2.874.135-3.741.732-4.076.627-.35.786-1.572.913-7.016.084-3.625.209-8.831.277-11.569.149-6.049-.35-7.375-3.353-8.889-2.757-1.39-3.526-1.346-5.251.302zm-50.177 10.957c-.438 1.727-1.562 6.981-1.725 8.06-.098.652-.92 4.172-1.827 7.822-2.206 8.882-3.026 13.367-3.399 18.575l-.312 4.353-2.915 2.274c-1.604 1.251-3.446 2.759-4.096 3.351-1.47 1.341-1.818 1.338-6.181-.051-1.948-.62-5.823-1.832-8.611-2.693l-5.069-1.564 1.799-2.167c2.471-2.975 2.979-4.057 3.576-7.619.499-2.978.318-6.894-.274-5.926-.159.261-.549 1.968-.867 3.793-.876 5.038-1.425 6.437-3.48 8.877-2.287 2.717-2.948 2.961-5.611 2.077-1.139-.378-5.592-1.587-9.894-2.687-4.302-1.1-7.911-2.077-8.02-2.171-.108-.093.562-1.29 1.49-2.659 2.673-3.942 3.201-5.308 3.523-9.112.171-2.03.52-3.57.809-3.57.278 0 2.54.405 5.026.899a386.33 386.33 0 0 0 7.602 1.43c4.846.837 9.427 1.948 13.125 3.182 1.874.625 4.389 1.271 5.588 1.435 2.762.379 3.043.029 5.013-6.234 3.032-9.642 6.159-16.683 8.541-19.233 1.22-1.305 1.582-1.427 3.858-1.297 1.953.112 2.471.303 2.331.855zm8.223 1.137c1.034.363 1.961.905 2.062 1.205.1.3-.264 1.655-.808 3.013-.544 1.357-1.119 3.321-1.277 4.364-.159 1.043-.587 2.612-.951 3.487s-.559 1.758-.434 1.961c.125.203.036.98-.199 1.727-.235.747-.918 4.041-1.518 7.319l-1.091 5.96-3.335 2.727c-1.835 1.499-4.055 3.174-4.933 3.721l-1.597.996.341-3.52c.389-4.022 1.667-10.849 3.322-17.741.625-2.607 1.589-7.194 2.14-10.193.551-2.998 1.078-5.688 1.172-5.979.198-.618 4.138-.09 7.106.953zm28.58 2.676c.847 1.288 1.541 2.668 1.541 3.068 0 .401.5.918 1.112 1.151.892.339 1.211.969 1.617 3.188.279 1.521.753 4.046 1.055 5.61.302 1.565.943 5.085 1.424 7.822.482 2.738 1.194 6.471 1.583 8.297.388 1.825.959 4.918 1.268 6.874.309 1.955.863 5.125 1.229 7.043.974 5.096 1.035 4.921-1.585 4.536-3.876-.569-4.16-.797-5.091-4.073-.469-1.652-.935-3.749-1.034-4.662-.1-.912-.908-5.392-1.796-9.955-.889-4.563-1.755-9.577-1.925-11.141-.17-1.565-.954-5.295-1.742-8.29-1.403-5.332-1.417-5.495-.67-7.864.419-1.33.762-2.773.762-3.206 0-1.308.631-.858 2.252 1.602zM362 254.608c1.956.769 5.142 2.241 7.081 3.272l3.526 1.873-2.578 2.538c-1.417 1.396-4.817 4.89-7.555 7.764-4.829 5.07-9.306 9.082-9.697 8.691-.525-.525 2.583-17.664 3.522-19.425.222-.417.684-1.964 1.027-3.437.342-1.474.734-2.679.871-2.678.136.001 1.847.632 3.803 1.402zm73.33-.182c.364.497.6 1.333.525 1.856-.107.743-.496.951-1.777.951-1.336 0-1.842-.298-2.726-1.61-.597-.887-1.085-1.763-1.085-1.948 0-.186.99-.296 2.2-.246 1.544.064 2.399.362 2.863.997zm-1.244 4.235c.767.169 1.395.396 1.395.505 0 .108-1.066 1.692-2.37 3.519-1.304 1.827-2.37 3.449-2.37 3.603 0 .154-.389.847-.864 1.539s-1.237 2.269-1.695 3.503c-.728 1.961-1.982 4.305-7.236 13.518-1.381 2.422-2.436 2.567-4.476.618l-1.463-1.399 1.772-3.224a177.559 177.559 0 0 0 6.014-11.995c.772-1.695 1.635-3.508 1.919-4.029 2.375-4.363 4.607-8.979 4.607-9.529 0-.367.758.173 1.685 1.199s2.314 2.004 3.082 2.172zm3.137 4.38c-.36.717-1.565 3.17-2.679 5.452-1.114 2.281-2.212 4.148-2.44 4.148-.228 0-.417.267-.421.592-.003.327-1.058 2.3-2.346 4.386a362.047 362.047 0 0 0-3.812 6.319c-1.218 2.091-1.59 2.427-2.159 1.956-.586-.487-.397-1.099 1.295-4.186 1.09-1.988 2.442-4.362 3.005-5.275.563-.912 1.537-2.992 2.165-4.622.628-1.629 1.303-2.963 1.5-2.963.197 0 .36-.266.363-.592.002-.326.85-1.926 1.884-3.556 1.502-2.369 2.122-2.963 3.089-2.963 1.162 0 1.183.051.556 1.304zm-157.001 2.984c2.868.797 6.301 1.758 7.627 2.136 1.327.378 2.927.691 3.556.694 2.426.016 2.573.474 1.628 5.05-.609 2.944-1.335 4.903-2.446 6.597-2.722 4.149-2.747 4.159-7.094 3.081-7.933-1.969-16.595-4.254-17.713-4.673-1.143-.43-1.147-.449-.197-.958 1.044-.559 4.89-6.886 5.793-9.53.302-.886.55-2.113.55-2.726 0-.941.24-1.115 1.541-1.117.847-.002 3.887.649 6.755 1.446zm130.913 3.323c2.534.964 3.349.993 4.193.149.806-.806.828-.792.512.322-.4 1.414-.722 2.179-2.599 6.178-.805 1.715-1.463 3.289-1.463 3.498 0 .329-2.583 6.634-4.476 10.924-.345.782-.88 2.275-1.189 3.318-.31 1.043-1.227 3.656-2.039 5.808l-1.476 3.911h-1.751c-.963 0-2.367-.124-3.12-.274-1.19-.238-1.359-.472-1.285-1.778.046-.827.714-2.891 1.483-4.585.769-1.695 1.882-4.575 2.474-6.4.591-1.826 1.24-3.532 1.442-3.793.201-.261.944-2.607 1.65-5.215.706-2.607 2.143-6.931 3.194-9.608 1.801-4.591 1.949-4.812 2.601-3.882.38.543 1.212 1.185 1.849 1.427zm-11.553.057 1.79.113-.069 6.623c-.038 3.643-.249 7.172-.469 7.843-.22.671-1.125 3.24-2.012 5.709-1.535 4.276-1.622 4.406-1.818 2.726-.114-.97-.011-1.959.227-2.197.261-.262.225-2.938-.092-6.756-1.079-12.992-1.1-14.711-.174-14.427.455.14 1.633.305 2.617.366zm-170.933 2.849c1.509.568 3.468 1.155 4.354 1.303 2.028.339 2.008.87-.098 2.574-1.604 1.298-1.786 1.336-4.202.865-1.389-.271-3.592-.848-4.896-1.284a208.013 208.013 0 0 0-3.029-.994c-.95-.291 2.758-3.455 4.078-3.479.577-.011 2.284.445 3.793 1.015zm133.633 4.7c-.769 3.286-1.244 7.066-1.425 11.331-.542 12.755-.988 14.223-4.319 14.223h-1.488l.618-2.963c.34-1.63.732-4.35.872-6.045.212-2.562 1.687-12.582 2.422-16.446.189-.995 3.959-5.547 4.306-5.199.093.092-.351 2.387-.986 5.099zm-119.783-1.682c1.936.404 3.652.816 3.814.916.304.189 6.588 1.934 9.494 2.638.913.221 2.37.574 3.239.786l1.58.383-2.467 2.006c-2.803 2.281-2.185 2.287-10.174-.102-5.222-1.563-10.482-2.936-13.417-3.503l-1.565-.303 2.276-1.748c1.252-.961 2.597-1.761 2.988-1.777.391-.017 2.295.301 4.232.704zm-19.404 1.673c2.478.803 4.802 1.554 5.166 1.671.37.118-2.407 2.289-6.305 4.93l-6.965 4.719-4.251-1.412c-2.338-.777-4.692-1.412-5.231-1.412-.539 0-.91-.204-.822-.454.139-.402 13.072-9.352 13.668-9.46.129-.023 2.262.615 4.74 1.418zm134.451 1.74c-.39 1.29-1.195 6.442-1.98 12.682-1.401 11.133-1.209 10.412-2.81 10.567-.783.076-2.254-.036-3.27-.248l-1.847-.386 1.704-1.807c1.539-1.631 1.731-2.136 1.986-5.204.155-1.868.517-5.586.805-8.261l.524-4.865 2.182-1.62c2.495-1.851 3.061-2.031 2.706-.858zm-121.11 1.698c2.18.609 5.564 1.481 7.52 1.938 1.955.457 3.982 1.018 4.503 1.246.522.227 1.963.696 3.202 1.041l2.254.627-2.491 1.858a196.746 196.746 0 0 0-2.965 2.24c-.26.211-2.374 1.778-4.696 3.483l-4.222 3.101-2.178-.48c-1.198-.265-6.335-1.838-11.418-3.496l-9.239-3.014 7.106-4.796c3.909-2.637 7.456-4.808 7.883-4.824.427-.016 2.561.468 4.741 1.076zm32.601 1.246c2.762.772 7.76 2.117 11.105 2.988l6.082 1.585-2.215 2.464c-1.218 1.355-2.589 2.464-3.046 2.464-.457 0-2.09-.443-3.63-.983s-4.613-1.503-6.829-2.14l-6.4-1.84a185.364 185.364 0 0 0-4.4-1.2c-1.154-.295-1.901-.726-1.732-.999.512-.828 4.677-3.718 5.376-3.73.366-.007 2.926.62 5.689 1.391zm81.821 3.219c-.136 1.239-.381 4.394-.544 7.011l-.297 4.759-2.035 2.345c-1.119 1.29-2.192 2.188-2.385 1.996-.193-.193.006-2.008.441-4.034.436-2.026.789-5.172.786-6.991-.005-3.271.017-3.33 2.015-5.279 1.111-1.083 2.076-1.99 2.144-2.014.067-.025.011.969-.125 2.207zm-90.039 2.174c2.328.661 6.58 1.877 9.448 2.703 2.868.825 6.121 1.71 7.229 1.965 1.108.256 2.015.615 2.015.799 0 .686-11.118 10.019-11.936 10.019-.221 0-4.506-1.041-9.522-2.313-5.016-1.272-10.803-2.68-12.861-3.129l-3.741-.816 1.371-1.141c.754-.628 3.397-2.564 5.874-4.304 2.477-1.738 5.022-3.665 5.654-4.281.633-.617 1.394-1.027 1.693-.912.299.114 2.448.749 4.776 1.41zm35.765 1.442c4.045 1.14 8.55 2.341 10.011 2.668l2.657.595-2.582 2.427c-1.42 1.335-2.886 2.599-3.257 2.807-.689.389-7.003-1.164-9.206-2.264-.651-.326-3.105-1.065-5.451-1.644-2.347-.579-4.555-1.143-4.906-1.254-.696-.219 3.986-5.41 4.879-5.409.275 0 3.81.933 7.855 2.074zm-88.438-.238c2.076.561 3.955 1.2 4.174 1.419.219.219-1.48 1.687-3.776 3.263-2.295 1.575-5.003 3.526-6.017 4.335-2.214 1.768-2.525 1.783-6.985.341-1.924-.623-4.244-1.288-5.157-1.478-.912-.191-1.824-.444-2.026-.563-.43-.253 4.932-4.537 7.004-5.595.782-.4 2.382-1.268 3.556-1.929 2.438-1.374 3.457-1.352 9.227.207zm137.706 1.719c-.419 2.931-1.296 8.257-1.645 9.989-.196.973-.24.969-4.442-.381l-4.245-1.365.272-1.751c.306-1.967 1.445-3.124 6.399-6.497 1.751-1.192 3.32-2.386 3.485-2.654.544-.88.588-.223.176 2.659zm68.292-.241c.73.52 1.753 1.107 2.274 1.304.884.335.747.717-2.078 5.789-1.664 2.986-3.364 5.619-3.777 5.85-.414.232-1.803.348-3.087.259-1.285-.088-2.336.034-2.336.273.001.239-.127.307-.284.151-.441-.442.775-3.834 1.612-4.496.783-.619 2.029-2.779 4.234-7.338.722-1.494 1.493-2.721 1.714-2.726.22-.006.998.415 1.728.934zm-195.715 1.701c1.915.672 4.869 1.632 6.564 2.133 1.694.5 4.801 1.443 6.902 2.095 2.101.652 4.288 1.186 4.859 1.186 1.515 0 1.265.51-1.162 2.37-1.19.913-2.408 1.878-2.708 2.147-3.51 3.145-6.293 5.011-7.152 4.795-2.121-.531-12.885-3.723-13.776-4.084-1.77-.717-6.065-1.921-7.907-2.215-1.672-.268-3.056-1.117-1.82-1.117.287 0 .78-.23 1.095-.512.517-.461 11.375-7.996 11.549-8.014.04-.004 1.64.543 3.556 1.216zm101.55 3.443c4.604 1.524 8.482 2.881 8.618 3.017.135.135-.688 1.235-1.83 2.444-2.408 2.549-3.312 2.696-7.977 1.292-1.656-.499-5.561-1.49-8.676-2.202l-5.662-1.294 3.212-3.013c1.767-1.658 3.377-3.014 3.578-3.014.201 0 4.133 1.247 8.737 2.77zm-34.236-.915c1.657.499 3.759 1.056 4.672 1.239.912.182 2.554.735 3.648 1.226 1.094.492 2.267.898 2.607.902 1.157.013 3.978 1.176 4.008 1.652.016.261-.53.901-1.215 1.422a77.038 77.038 0 0 0-2.369 1.896c-2.252 1.898-4.111 3.378-5.921 4.717-1.737 1.284-1.968 1.333-3.793.809-1.069-.307-5.463-1.449-9.765-2.537-4.302-1.089-7.923-2.058-8.046-2.154-.122-.096.011-.323.296-.505.718-.456 3.956-3.091 8.123-6.611 1.929-1.629 3.785-2.963 4.125-2.963.339 0 1.972.408 3.63.907zm48.348 3.488c-.79.79-1.237.005-.502-.88.444-.535.701-.599.832-.207.104.312-.044.801-.33 1.087zm-141.683 1.136 5.579 1.74-4.394 2.84a1127.979 1127.979 0 0 0-6.844 4.455l-2.45 1.616-5.609-1.503c-3.085-.826-5.677-1.566-5.76-1.645-.084-.078.876-.847 2.133-1.709 1.257-.862 2.498-1.736 2.759-1.943 2.73-2.166 7.735-5.512 8.297-5.547.391-.024 3.221.739 6.289 1.696zm54.077.374c3.433.9 9.014 2.31 12.404 3.131 3.39.822 6.347 1.667 6.572 1.877.225.21-.072.774-.659 1.253-.587.479-1.731 1.448-2.542 2.153-3.993 3.472-7.617 6.066-8.475 6.066-.524 0-3.217-.66-5.984-1.466a515.812 515.812 0 0 0-7.401-2.105c-1.304-.352-4.03-1.185-6.059-1.853-2.029-.667-4.15-1.213-4.714-1.213-.93 0-.892-.099.41-1.066.79-.587 1.76-1.387 2.155-1.778.396-.391 1.755-1.565 3.021-2.608a224.705 224.705 0 0 0 3.507-2.947c.663-.579 1.278-1.059 1.365-1.067.087-.009 2.967.722 6.4 1.623zm87.374.432c.037.035-.044 1.183-.179 2.552-.219 2.228-.362 2.489-1.36 2.489-.923 0-4.709-1.217-5.343-1.718-.098-.077.752-1.009 1.889-2.069 1.77-1.65 2.275-1.884 3.497-1.623.786.168 1.459.334 1.496.369zm-28.969.306c.695.264 3.216.898 5.602 1.407 2.385.51 6.194 1.509 8.463 2.22l4.124 1.293-2.702 3.105c-1.487 1.708-3.58 4.032-4.651 5.163l-1.949 2.059-6.111-1.92c-6.368-2-13.572-4.112-15.001-4.397-.61-.121-.044-.796 2.127-2.536 4.018-3.219 5.027-4.052 6.727-5.557 1.672-1.477 1.681-1.48 3.371-.837zm35.658 1.068c3.994 1.176 4.197 1.664 1.74 4.18-1.584 1.622-1.819 1.712-3.496 1.335-3.519-.791-4.328-1.272-4.09-2.433.122-.591.353-1.892.514-2.892.235-1.455.453-1.756 1.094-1.509.441.169 2.348.763 4.238 1.319zm-130.781 2.299c7.574 2.251 9.897 2.92 13.043 3.757l2.322.617-1.638 1.46a108.23 108.23 0 0 1-3.72 3.119c-1.146.913-2.557 2.113-3.136 2.667-.578.554-1.656 1.427-2.393 1.939l-1.341.931-9.719-2.816c-5.345-1.549-11.405-3.256-13.467-3.794-3.561-.929-3.701-1.016-2.808-1.73 1.97-1.576 3.444-2.599 8.01-5.558 5.521-3.578 4.887-3.553 14.847-.592zm141.441.261c2.132.274 2.229.351 1.948 1.527-.163.682-.32 1.239-.349 1.239-.028 0-.619.5-1.313 1.11-1.204 1.059-1.384 1.083-3.912.517-2.316-.518-2.649-.736-2.649-1.732 0-1.822 1.451-3.442 2.845-3.176.652.125 2.195.357 3.43.515zm-70.603 4.393c3.599.93 6.573 1.904 6.607 2.164.035.26-.884 1.187-2.041 2.061-1.158.873-2.648 2.047-3.312 2.609-4.895 4.136-5.119 4.247-7.485 3.712-1.216-.275-4.451-1.156-7.189-1.959-2.738-.804-6.213-1.71-7.723-2.014l-2.746-.552 1.56-1.367c.859-.752 2.521-2.152 3.694-3.113 1.174-.96 2.251-1.902 2.393-2.093.143-.191 1.072-.953 2.065-1.693l1.805-1.345 2.913.949c1.602.522 5.859 1.711 9.459 2.641zm50.429-2.418c2.087.603 2.151.776 1.428 3.873-.152.651-.406 2.181-.563 3.399-.245 1.892-.595 2.466-2.408 3.952l-2.121 1.738-2.374-.609c-1.68-.43-2.301-.8-2.122-1.265.139-.36.253-2.505.254-4.765.002-5.498.815-6.967 3.831-6.924 1.151.016 2.985.287 4.075.601zm12.477 1.028c0 .261-.226.474-.502.474s-.37-.213-.209-.474.387-.474.502-.474c.115 0 .209.213.209.474zm-6.847.531c1.159.291 2.106.709 2.106.928 0 .22-.89 1.208-1.979 2.196a179.502 179.502 0 0 0-2.919 2.701c-.93.895-.936.888-.609-.712a72.18 72.18 0 0 0 .613-3.629c.155-1.108.372-2.015.482-2.015.11 0 1.148.239 2.306.531zm-160.098 2.05c2.959.892 5.466 1.708 5.57 1.812.105.105-1.035 1.026-2.531 2.047-2.74 1.87-8.169 6.25-9.742 7.862-.467.477-.944.868-1.061.868-.118 0-2.51-.662-5.315-1.472-2.806-.81-5.602-1.585-6.214-1.723l-1.113-.251 1.305-1.121c.718-.617 1.445-1.121 1.616-1.121.171 0 .741-.401 1.267-.891.526-.49 1.793-1.448 2.815-2.129 3.108-2.068 4.159-2.818 5.878-4.194.907-.726 1.761-1.317 1.897-1.315.136.003 2.668.735 5.628 1.628zm54.469-.248c1.501.501 4.221 1.343 6.046 1.871 1.826.528 5.132 1.491 7.349 2.139 2.216.649 4.942 1.442 6.057 1.764 1.116.321 1.969.755 1.897.964-.073.209-1.343 1.293-2.824 2.41-1.48 1.117-4.203 3.283-6.049 4.814l-3.358 2.782-2.721-.731c-2.421-.651-9.678-2.759-19.246-5.59l-3.251-.962 2.055-1.749c1.13-.962 2.387-2.069 2.793-2.46.405-.391 1.583-1.339 2.618-2.108 1.034-.768 1.987-1.523 2.118-1.676.558-.656 3.006-2.379 3.38-2.379.225 0 1.636.41 3.136.911zm90.988 3.638c-.138 2.241-.347 4.171-.463 4.287-.231.231-6.025-.624-6.336-.935-.195-.195 6.473-7.427 6.847-7.427.112 0 .091 1.834-.048 4.075zm20.827-2.534c-1.073 7.186-1.471 9.057-2.054 9.64-.781.782-6.032.927-7.894.219-2.083-.792-.954-2.995 3.835-7.48 4.686-4.389 6.52-5.103 6.113-2.379zm-49.058.629c1.141.411 2.395.833 2.786.939.391.106 3.164.958 6.163 1.894 2.998.936 6.471 1.966 7.718 2.288l2.266.586-4.992 4.932c-2.746 2.713-5.259 5.081-5.585 5.264-.326.182-2.726-.377-5.334-1.242-2.607-.865-6.462-2.033-8.567-2.594-2.105-.561-5.14-1.496-6.744-2.077l-2.916-1.056 2.412-1.878a366.312 366.312 0 0 0 6.017-4.84c1.982-1.63 3.851-2.963 4.153-2.963.302 0 1.483.336 2.623.747zm-106.212 1.588c1.673.503 4.642 1.37 6.598 1.927a698.71 698.71 0 0 1 5.689 1.648c1.173.35 4.215 1.219 6.759 1.932 3.593 1.007 4.514 1.431 4.128 1.897-.274.33-2.676 2.112-5.337 3.96-2.662 1.849-5.571 4.012-6.465 4.805-.949.842-1.924 1.329-2.342 1.168-.393-.151-4.035-1.137-8.092-2.19-6.689-1.738-10.696-2.849-15.804-4.382-1.128-.339-1.741-.79-1.658-1.221.115-.6 12.49-10.379 13.205-10.435.151-.012 1.645.389 3.319.891zm78.287 5.595c4.62 1.271 8.51 2.422 8.645 2.558.252.251-3.048 3.191-6.853 6.105-1.173.899-2.24 1.757-2.37 1.908-.13.15-1.215.967-2.41 1.813l-2.173 1.54-3.279-.924a837.175 837.175 0 0 1-7.308-2.107 382.366 382.366 0 0 0-6.056-1.728c-2.292-.617-2.256-1.175.193-2.982 1.948-1.438 4.987-3.903 8.202-6.65 3.084-2.638 1.991-2.676 13.409.467zm52.679-.249 2.768.494-.332 3.379c-.389 3.96-.324 3.827-3.071 6.295l-2.133 1.917-2.946-.668c-2.897-.656-2.94-.69-2.668-2.054.153-.763.039-2.335-.253-3.494l-.53-2.108 2.487-2.395c1.548-1.49 2.756-2.294 3.199-2.127.391.147 1.957.489 3.479.761zm6.878 1.572c1.093.316 1.078.357-.832 2.248-1.07 1.059-2.013 1.838-2.096 1.731-.083-.108-.06-1.216.052-2.464.162-1.824.355-2.226.982-2.052.43.118 1.282.36 1.894.537zm-165.735 1.367c1.108.36 3.227 1.022 4.709 1.472l2.694.818-4.116 2.76a279.666 279.666 0 0 0-8.337 5.871c-2.321 1.711-4.561 3.106-4.978 3.1-.953-.014-10.743-2.65-11.44-3.081-.291-.18 1.833-1.964 4.846-4.073 2.95-2.064 5.683-4.017 6.074-4.339.391-.322 1.351-.998 2.133-1.502s1.726-1.219 2.096-1.588c.747-.744 2.879-.554 6.319.562zm60.563.934c2.871.958 10.351 3.225 12.563 3.808 3.449.908 5.884 1.863 5.662 2.222-.152.245-1.914 1.544-3.917 2.885-2.003 1.342-4.886 3.508-6.407 4.814-2.61 2.242-2.849 2.347-4.266 1.864-.826-.281-2.675-.771-4.109-1.088-2.645-.586-6.412-1.6-12.208-3.287a156.759 156.759 0 0 0-5.46-1.48c-1.243-.302-2.363-.718-2.49-.923-.307-.497 2.756-3.033 8.543-7.073 5.432-3.792 5.794-3.844 12.089-1.742zm109.281 1.601c-.168 1.76-.539 4.32-.824 5.689-.569 2.727-.449 2.67-4.57 2.176l-2.542-.306.232-2.414c.219-2.277.417-2.583 3.49-5.376 1.792-1.628 3.542-2.962 3.889-2.965.492-.003.564.696.325 3.196zm-47.826-.635c2.381.887 6.008 1.98 8.059 2.429 2.052.45 3.944.97 4.204 1.157.261.186 1.541.617 2.845.957 1.303.339 2.541.767 2.749.95.366.321-1.377 2.269-4.242 4.742-.755.652-2.866 2.498-4.691 4.102l-3.319 2.916-4.493-1.516c-2.471-.834-7.949-2.567-12.173-3.852-8.529-2.594-8.213-2.202-4.171-5.18 1.042-.769 2.002-1.517 2.132-1.662.131-.146 1.091-.9 2.134-1.677 1.043-.776 2.323-1.772 2.844-2.213 2.229-1.884 3.334-2.739 3.556-2.752.13-.007 2.185.712 4.566 1.599zm27.197 2.713v2.906l-1.954-.262c-1.075-.144-2.136-.444-2.358-.667-.331-.33 3.52-4.884 4.131-4.884.099 0 .181 1.308.181 2.907zm-131.766.617c2.231.669 4.364 1.221 4.741 1.226.376.006 2.497.557 4.714 1.224 2.216.668 5.285 1.583 6.819 2.033l2.791.818-1.843 1.451c-5.955 4.69-14.146 10.583-14.709 10.583-.361 0-2.2-.443-4.087-.985a313.775 313.775 0 0 0-5.801-1.605c-3.384-.885-17.477-5.011-17.627-5.161-.207-.207 4.456-3.605 10.891-7.936l6.064-4.081 1.996.608c1.097.335 3.82 1.156 6.051 1.825zm73.177 4.728c3.889 1.197 7.343 2.177 7.676 2.177 1.36 0 1.004.955-1.123 3.016-7.147 6.925-9.233 8.823-9.516 8.66-.173-.101-2.555-.867-5.293-1.704-8.432-2.577-13.907-4.325-14.292-4.564-.539-.332 2.6-2.993 6.944-5.887 2.086-1.389 4.254-3.013 4.817-3.61.841-.89 1.266-1.01 2.371-.674.74.225 4.527 1.389 8.416 2.586zm55.63-2.208 2.575.83-.296 2.968c-.426 4.275-.913 5.271-3.95 8.08-2.636 2.439-2.783 2.506-4.852 2.225-4.273-.581-4.168-.388-3.247-5.965.53-3.206.635-3.387 3.573-6.136 1.665-1.557 3.161-2.832 3.325-2.832.163 0 1.455.374 2.872.83zm14.468.915c-.172 1.133-.423 1.445-1.01 1.258a143.41 143.41 0 0 0-1.432-.448c-.422-.129-.088-.588.948-1.303.88-.606 1.627-1.083 1.662-1.059.034.025-.041.723-.168 1.552zm-7.915.685 2.118.533-1.571 1.482c-3.65 3.44-3.45 3.424-3.269.264.088-1.547.26-2.812.382-2.812s1.175.24 2.34.533zm6.459 1.624c1.52.362 1.488.749-.651 7.773-1.517 4.978-2.329 6.191-4.142 6.183-1.256-.006-6.131-1.182-6.523-1.573-.118-.119.107-1.451.501-2.96.625-2.395 1.183-3.213 4.4-6.449 2.259-2.272 3.964-3.623 4.408-3.493.398.117 1.301.35 2.007.519zm-249.691.689c1.214.462 1.245.57.99 3.438-.145 1.628-.397 5.48-.56 8.561-.164 3.08-.362 5.534-.442 5.452-.339-.349-1.71-9.433-1.918-12.704-.125-1.96-.344-3.937-.487-4.393-.302-.958.513-1.077 2.417-.354zm132.125.186c1.117.364 4.485 1.325 7.483 2.136 2.999.81 6.107 1.686 6.908 1.945.801.259 1.827.472 2.281.472 1.171 0 5.507 1.466 5.507 1.862 0 .348-2.865 2.752-10.647 8.932l-4.721 3.749-4.286-1.295-12.346-3.728c-4.432-1.339-8.362-2.543-8.733-2.675-.503-.18-.381-.439.474-1.017 2.211-1.493 11.591-8.6 12.956-9.816 1.577-1.406 2.3-1.485 5.124-.565zm-53.756 3.384c.678.235.183.883-1.439 1.88-.424.261-2.615 1.813-4.869 3.45-2.254 1.637-5.64 3.913-7.525 5.057l-3.428 2.081-2.587-.612c-3.33-.787-9.461-2.667-9.461-2.9 0-.1 2.186-1.685 4.859-3.524s6.634-4.584 8.803-6.1l3.944-2.756 5.538 1.603c3.046.882 5.82 1.701 6.165 1.821zm-70.955-1.257c.17.161.428 1.893.574 3.848.622 8.385 1.646 11.918 4.237 14.618 2.036 2.123 4.615 3.557 8.747 4.866 1.891.599 3.278 1.246 3.082 1.44-.196.193-1.949 1.136-3.895 2.095-1.945.96-6.07 3.426-9.168 5.481-3.096 2.056-5.897 3.737-6.223 3.737-2.194 0-3.921-15.256-2.952-26.074.152-1.695.412-5.035.577-7.422l.301-4.34 2.206.729c1.212.401 2.344.861 2.514 1.022zm195.72 1.986c4.824 1.553 9.304 2.924 9.956 3.047.651.124 1.749.457 2.439.742 1.251.516 1.241.529-4.435 6.051-3.129 3.043-5.827 5.523-5.995 5.511-.417-.029-9.816-2.734-17.846-5.134-2.086-.624-4.494-1.285-5.351-1.468l-1.559-.333 5.114-5.214a945.776 945.776 0 0 0 5.775-5.919c.807-.86.748-.874 11.902 2.717zm22.492.795c-.357 1.5-.659 2.993-.668 3.319-.022.773-2.421.765-3.921-.013-1.053-.547-1.095-.675-.424-1.304 1.136-1.066 5.443-4.728 5.561-4.728.057 0-.189 1.227-.548 2.726zm-210.663.831c5.235 3.463 6.4 4.875 9.924 12.029 2.933 5.955 3.097 6.527 2.033 7.085-1.322.693-6.083-.164-8.937-1.608-5.05-2.555-6.977-6.04-8.026-14.51a608.57 608.57 0 0 1-.72-5.946c0-.582 1.744.316 5.726 2.95zm68.467-.98c1.304.368 6.637 1.843 11.852 3.278 5.215 1.435 10.442 2.904 11.615 3.263l2.133.654-7.111 4.652a1902.137 1902.137 0 0 0-9.585 6.303c-2.455 1.637-2.493 1.646-4.978 1.059-1.377-.326-5.597-1.646-9.378-2.935-3.78-1.289-8.633-2.805-10.783-3.368l-3.91-1.023 7.377-5.215c4.058-2.868 7.95-5.695 8.65-6.281 1.5-1.255 1.156-1.223 4.118-.387zm76.016 2.92c7.327 2.068 16.944 5.054 17.266 5.361.458.436-12.811 13.324-13.711 13.317-.22-.001-2.32-.605-4.667-1.343a791.8 791.8 0 0 0-10.543-3.197c-3.453-1.021-6.266-2.07-6.253-2.331.013-.261 1.539-1.647 3.392-3.081 3.657-2.833 4.412-3.452 8.619-7.073 1.539-1.325 2.893-2.409 3.008-2.409.115 0 1.415.341 2.889.756zm77.34 1.496c-.013 1.419-.744 2.141-1.822 1.799-.975-.309-.968-.344.296-1.458 1.566-1.379 1.535-1.372 1.526-.341zm-14.619.378c1.081.108 2.056.287 2.168.398.111.111-.026 1.022-.305 2.024-.278 1.002-.507 2.668-.508 3.701-.002 1.668-.299 2.153-2.657 4.347-2.874 2.675-3.127 2.723-7.957 1.513l-1.84-.461.274-2.654c.261-2.531.433-2.813 3.723-6.126 2.478-2.494 3.687-3.397 4.293-3.205.464.147 1.728.356 2.809.463zm43.868 2.732c-1.987 2.021-4.45 3.981-5.915 4.705-4.495 2.22-7.586 5.703-6.133 6.909.48.398 1.096-.03 2.672-1.86 1.286-1.493 3.035-2.846 4.698-3.633 2.66-1.259 7.673-5.553 7.673-6.57 0-.3.32-.667.711-.818.422-.161.712-.004.712.385 0 .361.112.952.25 1.311.162.421-1.059 1.559-3.437 3.203-2.028 1.403-4.648 3.335-5.821 4.293-2.417 1.975-4.69 3.546-22.281 15.405-6.91 4.658-12.67 8.598-12.8 8.756-.131.158-.984.803-1.897 1.435-2.442 1.69-8.532 6.718-8.542 7.052-.004.158-1.604 2.313-3.555 4.788-3.278 4.158-4.001 5.554-3.263 6.292.157.157.743.099 1.304-.128 1.24-.503 7.677-2.42 8.556-2.549.348-.052 1.141-.468 1.763-.926.621-.459.863-.704.537-.546-.325.158-.592.192-.592.076 0-.117 1.498-1.102 3.329-2.189 2.023-1.202 3.202-2.185 3.004-2.505-.213-.345-.045-.419.488-.215.447.172.707.14.577-.07-.13-.211 1.158-1.184 2.862-2.165 1.704-.98 2.972-1.909 2.817-2.064-.155-.155 1.229-1.178 3.075-2.272 1.847-1.095 3.361-2.179 3.366-2.408.004-.229 1.054-1.021 2.334-1.76 2.245-1.296 3.105-2.139 1.59-1.557-.454.174-.616.087-.421-.228.174-.28.718-.405 1.211-.276.492.129.78.048.64-.179-.141-.227.766-.937 2.014-1.577 1.248-.64 2.696-1.517 3.217-1.948.522-.431.649-.629.283-.439-.438.227-.55.158-.328-.201.186-.301.735-.548 1.219-.548.484 0 .952-.178 1.039-.395.15-.374 1.15-1.079 8.454-5.96 1.695-1.132 3.508-2.484 4.03-3.004.521-.519 2.069-1.631 3.439-2.472 1.37-.84 2.389-1.691 2.266-1.891-.124-.201.855-.953 2.176-1.672 1.321-.719 3.128-1.945 4.016-2.724.888-.78 1.617-1.235 1.621-1.013.004.223.214.085.467-.306.919-1.423.523-3.64-.928-5.193l-1.402-1.501 1.508.147c1.286.125 1.58.403 1.995 1.886.645 2.305 1.197 2.785 1.197 1.04 0-.97-.486-1.879-1.563-2.923-2.059-1.996-3.987-2.024-6.186-.093-1.877 1.648-2.206 1.734-2.206.58 0-1.013-1.285-2.95-1.956-2.95-.263 0-2.011 1.559-3.884 3.465zm-35.789-1.268c.614.167.144.822-2.011 2.803-1.546 1.422-2.948 2.585-3.113 2.585-.325 0 .147-4.282.603-5.469.263-.687 1.806-.66 4.521.081zm5.553 1.391c.143.143-.54 2.648-1.518 5.565-.978 2.918-1.773 5.773-1.766 6.344.006.572-.189 1.163-.435 1.315-.332.206-7.937-1.437-8.403-1.816-.044-.035.116-1.111.355-2.391.331-1.769.804-2.621 1.974-3.555.847-.675 2.714-2.354 4.149-3.73 2.234-2.143 2.808-2.466 3.996-2.248.764.141 1.505.373 1.648.516zm-121.208.669c1.635.516 7.346 2.242 12.691 3.836 5.345 1.594 9.803 2.98 9.906 3.081.255.249-5.773 5.795-10.609 9.759-2.29 1.878-4.406 3.244-5.024 3.244-.588 0-4.072-.935-7.744-2.079-3.672-1.144-7.104-2.189-7.625-2.323-.522-.135-3.402-.994-6.4-1.91-2.999-.915-5.876-1.738-6.394-1.829-.661-.116 1.895-2.044 8.533-6.436 5.211-3.448 9.524-6.273 9.584-6.276.06-.003 1.447.416 3.082.933zm164.134.918c.662 1.072-1.205 3.178-5.757 6.495-2.694 1.963-4.786 3.752-4.648 3.975.138.223-.159.534-.658.693-1.142.363-6.75 3.97-7.395 4.758-.596.728-4.125 3.081-4.621 3.081-.2 0-.364-.466-.364-1.036 0-.57-.46-1.526-1.023-2.125l-1.022-1.088 1.348-1.075a88.805 88.805 0 0 1 3.358-2.498 649.428 649.428 0 0 0 6.842-4.978c10.243-7.536 10.969-7.961 12.393-7.265.7.341 1.396.82 1.547 1.063zm-227.23.705c1.92.628 4.657 1.407 6.082 1.731l2.59.591-1.153.758c-.635.417-4.349 3.44-8.253 6.718l-7.098 5.959-4.903-1.556c-2.697-.855-5.66-1.698-6.584-1.871-3.378-.634-2.664-2.019 3.07-5.953 1.992-1.367 3.728-2.613 3.858-2.77.814-.977 7.051-4.72 7.887-4.732.557-.008 2.584.498 4.504 1.125zm133.624.52c2.999.926 8.318 2.489 11.821 3.474 3.503.985 6.44 2.003 6.527 2.264.145.437-2.313 2.97-10.251 10.563-1.854 1.774-3.336 2.827-3.792 2.697-7.191-2.057-24.028-7.074-24.171-7.201-.105-.094.855-1.078 2.133-2.186 1.279-1.108 4.459-4.092 7.067-6.633 2.607-2.54 4.847-4.629 4.977-4.641.131-.012 2.691.736 5.689 1.663zm-110.898 6.065c5.065 1.704 10.115 3.242 11.222 3.417 1.106.175 2.116.486 2.243.692.126.205-2.263 2.053-5.311 4.107-3.047 2.053-6.829 4.826-8.405 6.162-1.576 1.335-3.319 2.569-3.874 2.739-.612.189-2.287-.176-4.267-.928-2.969-1.13-15.989-5.176-18.547-5.764-.586-.135-1.067-.32-1.067-.411 0-.304 3.109-3.256 5.35-5.08 1.217-.989 2.484-2.058 2.816-2.375.333-.316 2.265-1.89 4.294-3.496 3.247-2.571 3.846-2.875 5.013-2.541.729.209 5.469 1.774 10.533 3.478zm135.707-2.391c-.369 1.941-.357 1.929-1.588 1.538-1.02-.324-1.018-.338.29-1.703.725-.757 1.38-1.376 1.455-1.376.075 0 .005.693-.157 1.541zm-64.343 3.475c3.101.934 8.042 2.435 10.98 3.338l5.342 1.639-5.381 5.337c-2.959 2.934-6.083 5.886-6.943 6.558-1.705 1.335-1.342 1.363-8.079-.64-.912-.271-2.619-.599-3.792-.729-1.174-.13-2.347-.389-2.608-.576-.26-.187-2.899-1.059-5.864-1.937l-5.39-1.597 1.123-.888c3.601-2.845 8.484-7.049 11.554-9.948 1.303-1.231 2.606-2.242 2.895-2.247.288-.004 3.062.756 6.163 1.69zm76.808-.104c-.223.889-.522 1.103-1.267.908-.97-.254-.97-.26.079-1.376 1.228-1.307 1.597-1.162 1.188.468zm-12.989.387c.103.307-.237 2.445-.754 4.752-.966 4.31-1.71 5.488-5.592 8.852-1.196 1.037-1.402 1.064-4.029.524-1.523-.313-2.906-.65-3.073-.75-.167-.099.019-1.457.412-3.018.651-2.586 1.08-3.2 4.807-6.872 3.81-3.754 4.229-4.033 6.068-4.04 1.099-.004 2.057.241 2.161.552zm5.077.848c.635.168 1.207.506 1.271.753.111.422-5.596 5.495-5.872 5.219-.072-.072.131-1.647.449-3.502.639-3.724.256-3.497 4.152-2.47zm5.701 1.268c1.438.288 1.504.393 1.217 1.926-.625 3.331-3.073 10.551-4.131 12.184-.78 1.204-1.445 1.695-2.301 1.699-1.207.006-6.637-1.278-7.018-1.659-.112-.111.049-1.487.358-3.056.495-2.516.853-3.128 3.028-5.172 5.308-4.987 6.702-6.226 7.008-6.226.174 0 1.001.137 1.839.304zm-120.571 3.203c7.277 2.328 14.375 4.502 15.582 4.774 2.528.568 4.978 1.375 4.978 1.639 0 .302-1.229 1.267-6.362 4.996-1.064.773-4.165 3.28-6.891 5.572-3.802 3.195-5.183 4.098-5.926 3.877-.533-.159-2.569-.922-4.525-1.695-1.955-.773-6.329-2.042-9.718-2.819-4.822-1.107-15.408-4.447-15.408-4.863 0-.335 19.334-13.875 19.974-13.987.164-.029 3.897 1.099 8.296 2.506zm73.419 2.655c4.433 1.325 8.38 2.46 8.771 2.522.391.063.924.24 1.185.394.261.154 1.594.562 2.963.906 1.419.356 2.489.892 2.489 1.246 0 .342-.162.622-.361.622-.198 0-.891.486-1.54 1.08-.65.594-1.927 1.597-2.84 2.229-.913.632-1.766 1.278-1.896 1.436-.704.854-6.66 5.626-8.228 6.593-1.696 1.045-2.006 1.087-4.267.572-2.099-.479-4.133-1.171-8.602-2.928-.521-.206-2.2-.923-3.731-1.596-1.531-.673-2.945-1.223-3.142-1.223-.197 0-1.154-.332-2.125-.738l-1.765-.738 4.671-4.522c6.264-6.066 9.263-8.629 9.862-8.43.273.091 4.124 1.249 8.556 2.575zm-136.022-.437c2.504.802 4.48 1.527 4.391 1.611-.544.517-6.088 3.094-6.655 3.094-.578 0-3.225-4.785-3.225-5.83 0-.55.727-.401 5.489 1.125zm216.559.101c.607.445.794 1.115.683 2.453-.174 2.099-1.092 2.737-1.597 1.11-.187-.601-.74-1.661-1.229-2.356-.663-.942-.738-1.324-.293-1.503 1.009-.407 1.566-.339 2.436.296zm-58.656 3.181c-.448 1.678-.67 1.897-1.927 1.897h-1.42l1.851-1.897c1.019-1.043 1.886-1.896 1.927-1.896.041 0-.153.853-.431 1.896zm55.628-1.434c.931.589.66 3.163-.505 4.8-.488.685-.739 1.392-.56 1.572.18.18-.018.195-.44.033s-.928-.034-1.125.285c-.23.371-.161.458.189.241.301-.186.547-.237.547-.114 0 .124-1.391 1.003-3.091 1.954-1.88 1.05-2.965 1.935-2.767 2.254.212.344.043.418-.489.214-.447-.172-.695-.12-.55.114.145.235-1.128 1.206-2.829 2.157-1.702.952-2.989 1.9-2.861 2.108.128.207-.83.956-2.131 1.664-1.299.707-2.242 1.482-2.094 1.721.148.24-.062.308-.466.153-.453-.173-1.238.246-2.04 1.091-.717.755-2.318 1.96-3.556 2.678-2.463 1.428-3.098 2.201-.853 1.04 1.841-.952 2.556-.902.789.056-.753.407-1.888.798-2.523.867-.634.07-1.405.399-1.713.732-.438.474-.415.523.107.225.446-.254.554-.199.327.168-.484.782-1.704.677-1.704-.147 0-.382-.645-1.429-1.432-2.326l-1.432-1.63 1.857-1.586c5.13-4.38 28.888-20.733 30.162-20.761.261-.006.793.191 1.183.437zm-197.222 3.105c3.786 1.112 8.566 2.619 10.622 3.349l3.739 1.328-1.322.974c-.728.536-2.894 2.522-4.813 4.412-1.92 1.89-3.571 3.437-3.67 3.437-1.293 0-7.697-2.6-13.421-5.448-5.019-2.497-7.497-4.006-8.199-4.991l-1.005-1.412 1.248-.475c.686-.261 1.394-.479 1.573-.485.178-.006 1.498-.751 2.932-1.655 3.02-1.905 2.367-1.956 12.316.966zm75.481 1.611 1.753.568-1.4 1.275c-1.77 1.612-3.651 7.689-4.071 13.151l-.297 3.855-3.846-1.104c-2.116-.608-7.001-1.905-10.854-2.884-6.069-1.541-6.894-1.861-6.163-2.391 1.301-.942 6.835-5.467 7.727-6.317.438-.417 2.481-1.998 4.541-3.514 2.06-1.516 3.853-2.894 3.983-3.062.13-.169.745-.653 1.365-1.078 1.047-.715 1.286-.709 3.318.082a90.073 90.073 0 0 0 3.944 1.419zm77.813.192c-.248 1.528-.421 1.723-1.289 1.457-1.508-.462-1.509-.553-.015-2.047.761-.76 1.429-1.336 1.486-1.278.058.056-.024.897-.182 1.868zm-13.405-.24c.662.288.637.832-.237 5.178-1.032 5.138-1.282 5.556-5.876 9.813-2.096 1.943-2.497 1.23-1.72-3.054.354-1.956.655-4.588.669-5.849.023-2.116.199-2.454 2.277-4.367 2.173-2 3.321-2.404 4.887-1.721zm6.74 1.474c.692.246.242.885-2.52 3.574-2.683 2.613-3.313 3.041-3.12 2.119.134-.636.382-2.223.552-3.527.17-1.303.399-2.516.509-2.694.206-.335 3.091-.002 4.579.528zm-62.898 1.164c.026.03-.15 2.081-.391 4.558-.293 3.01-.697 4.79-1.217 5.366-.429.475-2.493 2.057-4.587 3.517-2.094 1.459-3.965 2.885-4.156 3.167-1.08 1.591.214-7.514 1.837-12.921 1.005-3.351 2.695-4.471 6.096-4.041 1.304.165 2.392.324 2.418.354zm67.453-.131c1.051.366 1.442.762 1.29 1.304-.12.428-.65 2.484-1.178 4.57-.528 2.086-1.352 5.073-1.831 6.637l-.87 2.845-4.011.121c-2.206.066-4.271-.049-4.588-.255-.439-.287-.463-1.166-.098-3.677l.479-3.3 4.599-4.386c2.529-2.411 4.621-4.385 4.649-4.385.028 0 .729.237 1.559.526zm-61.981 1.39c1.788.533 3.251 1.041 3.251 1.13 0 .089-1.342 1.036-2.983 2.105s-3.454 2.382-4.029 2.918l-1.047.976v-3.732c0-2.053.142-3.875.316-4.048.473-.474.945-.405 4.492.651zm-68.256 1.681c2.434.936 4.959 1.801 5.611 1.923 7.459 1.396 23.039 6.248 20.266 6.313-.456.011-.829.232-.829.493s-.303.474-.672.474c-.369 0-.742.175-.83.388-.232.573-5.94 4.353-6.571 4.353-.297 0-4.416-.928-9.152-2.063-9.459-2.265-18.611-4.365-21.145-4.85l-1.629-.312 2.608-2.432c3.03-2.825 7.017-5.987 7.549-5.987.202 0 2.36.765 4.794 1.7zm110.571.551c-.608 4.811-1.311 8.703-1.604 8.884-.18.111-1.695-.214-3.367-.722-1.673-.509-3.574-.932-4.226-.942l-1.185-.018 1.459-1.289c2.519-2.226 8.918-7.646 9.059-7.673.049-.01-.013.783-.136 1.76zm-35.271.109c.594.376.711 2.048.711 10.184 0 6.178-.173 9.731-.474 9.726-.261-.005-2.501-.553-4.978-1.219a453.384 453.384 0 0 0-5.505-1.455c-.872-.214-1.039-.705-1.303-3.829-.582-6.885-.599-6.817 2.186-8.915 1.369-1.031 2.902-2.248 3.408-2.704.505-.456 1.252-.837 1.659-.845.407-.008 1.154-.328 1.66-.711 1.066-.806 1.647-.857 2.636-.232zm6.952 2.415c5.88 2.436 13.74 4.847 14.507 4.45 1.189-.615-5.932 5.869-9.566 8.71-.889.696-2.789 2.278-4.221 3.516-2.804 2.424-3.246 2.583-4.544 1.634-.731-.535-.871-1.582-1.028-7.704-.1-3.897-.304-8.312-.453-9.811-.162-1.622-.087-2.726.185-2.726.252 0 2.556.869 5.12 1.931zm83.556.612c-.108.095-.731.427-1.382.738-1.118.531-1.133.522-.265-.174.755-.604 2.298-1.133 1.647-.564zm-185.822 3.095 2.547.896-1.475.763c-.811.419-2.125.762-2.92.762-1.336 0-1.446-.125-1.446-1.659 0-.913.169-1.659.374-1.659.206 0 1.52.403 2.92.897zm137.257 2.54c-.184 1.108-.394 2.082-.468 2.163-.074.082-.903.006-1.844-.171l-1.709-.321 2.016-1.843c1.109-1.013 2.089-1.843 2.177-1.843.089 0 .011.907-.172 2.015zm-89.101-1.088c-.274.443 4.803 2.116 15.987 5.268 3.064.864 5.567 1.69 5.562 1.836-.011.331-2.849 2.662-5.723 4.7l-2.177 1.544-3.512-.928c-1.932-.511-4.473-1.28-5.646-1.71-1.87-.685-4.271-1.464-11.53-3.743l-1.811-.568 4.418-3.375c4.781-3.651 4.848-3.697 4.432-3.024zm75.128 1.185c4.246 1.028 5.689 1.67 5.689 2.532 0 .912-13.697 14.793-14.596 14.793-.359 0-2.11-.64-3.89-1.421-1.78-.781-4.323-1.671-5.65-1.978-1.327-.306-2.404-.68-2.393-.831.011-.151 1.431-1.34 3.157-2.644 1.725-1.304 4.009-3.031 5.076-3.84 1.068-.807 3.433-2.861 5.257-4.562 1.825-1.701 3.532-3.026 3.793-2.944.262.083 1.862.486 3.557.895zm-41.086 3.19c.165 2.134.25 3.928.189 3.986-.26.251-8.407-1.856-8.407-2.174 0-.193 1.487-1.348 3.303-2.567 1.816-1.218 3.429-2.42 3.583-2.67.691-1.117 1.054-.184 1.332 3.425zm52.147-.08c.565.004 1.308.185 1.65.401.626.398.515.892-2.654 11.844-.404 1.394-1.071 2.921-1.484 3.393-.869.993-5.73 1.638-5.727.759.001-.288.736-2.913 1.634-5.833.897-2.921 1.776-6.121 1.953-7.111.367-2.056 1.976-4.083 2.946-3.711.36.138 1.117.254 1.682.258zm-101.984 2.144 3.181.824-1.804 1.307c-2.709 1.962-4.592 2.829-6.146 2.829-1.325 0-1.407-.117-1.585-2.252-.103-1.238-.104-2.709-.003-3.268.204-1.117-.282-1.16 6.357.56zm131.261-1.069c1.381 1.061 1.93 2.567 1.202 3.295-.771.771-6.341 2.535-6.741 2.136-.375-.375 3.659-6.043 4.287-6.024.274.008.838.275 1.252.593zm-84.531 3.435c3.972 1.022 3.734.578 4.078 7.625l.234 4.793-1.985-.657a88.804 88.804 0 0 1-3.645-1.302c-4.583-1.786-5.553-2.129-6.762-2.39-1.283-.276-1.295-.311-.595-1.666.394-.761.913-2.776 1.154-4.477.57-4.029.7-4.204 2.554-3.439.834.344 3.069 1.024 4.967 1.513zm47.109 5.553c-.975 3.306-1.913 6.152-2.085 6.323-.272.272-6.651-1.028-7.569-1.542-.186-.104.53-.973 1.59-1.931 1.06-.957 3.622-3.429 5.693-5.492 2.071-2.062 3.851-3.665 3.955-3.56.105.104-.608 2.895-1.584 6.202zm-56.301-2.884c-.16 1.17-.67 2.629-1.134 3.243l-.842 1.118-2.186-.835c-1.203-.459-2.177-.978-2.166-1.152.022-.333 6.294-4.774 6.5-4.601.066.055-.011 1.058-.172 2.227zm22.876 1.585c3.306.846 3.395.909 3.67 2.567.301 1.813.165 1.988-5.076 6.551l-1.761 1.534-2.007-.776c-1.103-.426-2.166-.914-2.362-1.084-.196-.17-.49-2.802-.652-5.849l-.297-5.541 2.549.865c1.402.476 4.073 1.256 5.936 1.733zm-33.817 1.149 1.333.508-1.434 1.31c-.789.721-2.082 1.693-2.874 2.161-1.434.847-1.44.846-1.435-.243.003-.601.141-1.914.307-2.917.274-1.659.412-1.801 1.535-1.575.679.137 1.835.477 2.568.756zm40.622.689c0 .098-.32.444-.711.769-.582.483-.711.45-.711-.18 0-.423.32-.769.711-.769.391 0 .711.081.711.18zm3.911 1.43c.456.009.83.208.83.444 0 .235.427.316.949.179.522-.136.829-.054.683.182-.146.236.261.43.905.43.645 0 2.369.458 3.833 1.018l2.661 1.019-4.107 3.874-4.108 3.874-2.186-.361c-1.202-.198-2.533-.373-2.959-.388-.634-.024-.834-.841-1.111-4.539-.327-4.352-.3-4.542.773-5.432.705-.584 1.458-.81 2.06-.618.521.167 1.321.31 1.777.318zm-5.863 7.567c.054 1.775.017 1.819-1.248 1.47-.717-.198-2.134-.488-3.148-.644l-1.845-.284 2.793-2.535 2.793-2.536.3 1.35c.164.743.324 2.173.355 3.179zm21.765-2.74c2.009.411 3.837.926 4.062 1.143.502.486-.894 4.838-1.984 6.183-1.141 1.408-4.036 1.949-7.431 1.388-3.022-.499-6.967-1.433-7.329-1.734-.347-.29 7.739-7.707 8.415-7.718.337-.005 2.257.327 4.267.738zm-32.533 4.153c-.843.377-1.2.332-1.53-.19-.94-1.485-.505-1.921 1.092-1.095 1.535.794 1.536.796.438 1.285zm15.543 4.37c-.336.405-1.002.946-1.48 1.202-.736.394-.869.281-.869-.738 0-1.029.212-1.201 1.48-1.201 1.286 0 1.4.097.869.737z" fill="currentColor"></path><path d="M182.694 238.236c-.488.467-15.61 10.051-18.079 11.458-.83.473-2.373 1.405-3.427 2.07-1.055.667-2.136 1.211-2.402 1.211s-.483.189-.483.419c0 .23-.374.538-.83.685-.456.146-2.003.941-3.437 1.767-3.17 1.824-7.21 4.08-9.58 5.35-1.696.908-1.982 1.735-.601 1.735.366 0 1.601-.523 2.745-1.161a583.827 583.827 0 0 1 4.165-2.299 278.77 278.77 0 0 0 5.167-2.927 492.402 492.402 0 0 1 4.741-2.719c.913-.512 2.999-1.796 4.637-2.852 1.637-1.056 3.055-1.838 3.15-1.737.154.163 1.221 13.587 1.221 15.364 0 .399.434.701 1.009.701.967 0 .995-.141.673-3.418-.186-1.881-.709-5.721-1.163-8.534-.454-2.813-.689-5.115-.52-5.115.168 0 2.916-1.706 6.105-3.792 3.189-2.086 6.001-3.793 6.247-3.793a.463.463 0 0 0 .449-.474c0-.261.297-.474.66-.474.551 0 1.236-.941 1.236-1.698 0-.37-1.231-.2-1.683.233zm-30.08 23.213c0 3.134.488 5.35 1.13 5.127.523-.182.528-1.504.021-5.423-.357-2.752-1.151-2.548-1.151.296z" fill="#1E1919"></path></g></svg>