<svg width="221" height="219" viewBox="0 0 221 219" fill="none" xmlns="http://www.w3.org/2000/svg">
<mask id="mask0_102_10716" style="mask-type:luminance" maskUnits="userSpaceOnUse" x="21" y="47" width="185" height="106">
<path fill-rule="evenodd" clip-rule="evenodd" d="M66.7286 65.9943H43.1338C40.0679 65.9943 37.5603 68.5101 37.5603 71.5858C37.5603 74.6614 40.0679 77.1772 43.1338 77.1772H55.1414H58.6604C61.7263 77.1772 64.234 79.6938 64.234 82.7695C64.234 84.3065 63.6056 85.7074 62.5951 86.7172C61.5886 87.7318 60.1918 88.3618 58.6604 88.3618H51.153H47.0081H26.7848C23.7189 88.3618 21.2113 90.8784 21.2113 93.9532C21.2113 97.0281 23.7189 99.5447 26.7848 99.5447H41.2626C36.892 109.85 34.4716 121.188 34.4716 133.097C34.4716 137.417 34.791 141.663 35.4039 145.812C35.6598 147.545 35.9686 149.264 36.3297 150.964C46.8451 149.35 57.9995 148.052 69.6445 147.105L70.5206 147.907L71.3453 146.971C85.3358 145.879 100.02 145.297 115.165 145.297C147.343 145.297 177.454 147.922 203.2 152.485C204.192 148.169 204.861 143.728 205.178 139.188C205.322 137.175 205.393 135.143 205.393 133.097C205.393 85.7408 167.133 47.3545 119.933 47.3545C99.816 47.3545 81.327 54.3281 66.7286 65.9943Z" fill="white"/>
</mask>
<g mask="url(#mask0_102_10716)">
<path fill-rule="evenodd" clip-rule="evenodd" d="M17.1376 156.56H209.469L209.469 43.28H17.1376L17.1376 156.56Z" fill="#F1F2F7"/>
</g>
<mask id="mask1_102_10716" style="mask-type:luminance" maskUnits="userSpaceOnUse" x="0" y="88" width="16" height="12">
<path fill-rule="evenodd" clip-rule="evenodd" d="M6.48521 88.1035C3.3802 88.1035 0.839966 90.6715 0.839966 93.8082C0.839966 96.945 3.3802 99.513 6.48521 99.513H9.86323C12.969 99.513 15.5093 96.945 15.5093 93.8082C15.5093 90.6715 12.969 88.1035 9.86323 88.1035H6.48521Z" fill="white"/>
</mask>
<g mask="url(#mask1_102_10716)">
<path fill-rule="evenodd" clip-rule="evenodd" d="M-3.23389 103.588H19.5851L19.5851 84.0291H-3.23389L-3.23389 103.588Z" fill="#F1F2F7"/>
</g>
<mask id="mask2_102_10716" style="mask-type:luminance" maskUnits="userSpaceOnUse" x="36" y="145" width="185" height="74">
<path fill-rule="evenodd" clip-rule="evenodd" d="M71.2223 147.084L70.3968 148.014L69.5207 147.217C57.8789 148.158 46.7278 149.447 36.214 151.051C44.4052 189.585 78.7151 218.497 119.796 218.497C139.032 218.497 156.781 212.155 171.065 201.457H186.27C189.334 201.457 191.842 198.956 191.842 195.9C191.842 194.375 191.213 192.981 190.204 191.978C189.196 190.97 187.799 190.344 186.27 190.344H179.657C176.592 190.344 174.084 187.844 174.084 184.788C174.084 183.261 174.713 181.868 175.722 180.864C176.73 179.856 178.127 179.231 179.657 179.231H215.249C218.314 179.231 220.821 176.731 220.821 173.674C220.821 172.148 220.192 170.755 219.183 169.752C218.172 168.743 216.782 168.118 215.249 168.118H197.797C200.025 163.165 201.794 157.964 203.045 152.563C177.305 148.03 147.201 145.421 115.031 145.421C99.8894 145.421 85.2079 145.999 71.2223 147.084Z" fill="white"/>
</mask>
<g mask="url(#mask2_102_10716)">
<path fill-rule="evenodd" clip-rule="evenodd" d="M32.1401 222.572H224.896L224.896 141.346H32.1401L32.1401 222.572Z" fill="#E8EBF2"/>
</g>
<mask id="mask3_102_10716" style="mask-type:luminance" maskUnits="userSpaceOnUse" x="70" y="135" width="135" height="18">
<path fill-rule="evenodd" clip-rule="evenodd" d="M188.096 146.213L179.492 138.327L170.284 145.161L166.424 139.843L151.188 145.161L116.088 139.843L95.6857 145.476C101.924 145.268 108.263 145.161 114.686 145.161C146.821 145.161 176.893 147.835 202.605 152.485C203.594 148.086 204.263 143.561 204.579 138.935L201.666 135.371L188.096 146.213ZM70.9255 146.867C78.9643 146.226 87.2321 145.758 95.6865 145.477L80.6146 135.642L70.9255 146.867Z" fill="white"/>
</mask>
<g mask="url(#mask3_102_10716)">
<path fill-rule="evenodd" clip-rule="evenodd" d="M66.8511 156.56H208.654V131.296H66.8511V156.56Z" fill="#E0E2EE"/>
</g>
<mask id="mask4_102_10716" style="mask-type:luminance" maskUnits="userSpaceOnUse" x="69" y="146" width="2" height="2">
<path fill-rule="evenodd" clip-rule="evenodd" d="M69.2948 146.897L70.1342 147.596L70.9247 146.78C70.3803 146.816 69.8351 146.855 69.2948 146.897Z" fill="white"/>
</mask>
<g mask="url(#mask4_102_10716)">
<path fill-rule="evenodd" clip-rule="evenodd" d="M65.2209 151.67H75.0005V142.706H65.2209V151.67Z" fill="#F1F2F7"/>
</g>
<mask id="mask5_102_10716" style="mask-type:luminance" maskUnits="userSpaceOnUse" x="35" y="132" width="35" height="19">
<path fill-rule="evenodd" clip-rule="evenodd" d="M35.0658 145.694C35.3217 147.431 35.6306 149.152 35.99 150.855C46.5022 149.239 57.6533 147.939 69.2942 146.99L53.0838 132.111L35.0658 145.694Z" fill="white"/>
</mask>
<g mask="url(#mask5_102_10716)">
<path fill-rule="evenodd" clip-rule="evenodd" d="M30.9919 154.93H73.37V128.036H30.9919L30.9919 154.93Z" fill="#E0E2EE"/>
</g>
<mask id="mask6_102_10716" style="mask-type:luminance" maskUnits="userSpaceOnUse" x="89" y="177" width="65" height="7">
<path fill-rule="evenodd" clip-rule="evenodd" d="M89.4387 180.371C89.4387 181.946 103.669 183.224 121.223 183.224C138.777 183.224 153.007 181.946 153.007 180.371C153.007 178.797 138.777 177.519 121.223 177.519C103.669 177.519 89.4387 178.797 89.4387 180.371Z" fill="white"/>
</mask>
<g mask="url(#mask6_102_10716)">
<path fill-rule="evenodd" clip-rule="evenodd" d="M85.3647 187.298H157.081V173.444H85.3647V187.298Z" fill="#D8DBEA"/>
</g>
<mask id="mask7_102_10716" style="mask-type:luminance" maskUnits="userSpaceOnUse" x="197" y="189" width="12" height="13">
<path fill-rule="evenodd" clip-rule="evenodd" d="M197.244 195.678C197.244 198.815 199.811 201.383 202.948 201.383C206.086 201.383 208.653 198.815 208.653 195.678C208.653 192.541 206.086 189.973 202.948 189.973C199.811 189.973 197.244 192.541 197.244 195.678Z" fill="white"/>
</mask>
<g mask="url(#mask7_102_10716)">
<path fill-rule="evenodd" clip-rule="evenodd" d="M193.17 205.458H212.729V185.899H193.17V205.458Z" fill="#E1E3EF"/>
</g>
<path fill-rule="evenodd" clip-rule="evenodd" d="M120.382 111.11C117.729 111.11 115.577 108.959 115.577 106.305C115.577 103.652 117.729 101.502 120.382 101.502C123.036 101.502 125.187 103.652 125.187 106.305C125.187 108.959 123.036 111.11 120.382 111.11M120.383 99.5125C116.631 99.5125 113.589 102.554 113.589 106.306C113.589 110.06 116.631 113.101 120.383 113.101C124.135 113.101 127.178 110.06 127.178 106.306C127.178 102.554 124.135 99.5125 120.383 99.5125" fill="#D8DBEA"/>
<path fill-rule="evenodd" clip-rule="evenodd" d="M138.797 170.006H101.97C98.3024 170.006 95.3278 167.033 95.3278 163.365L95.3278 129.499C95.3278 116.276 106.147 105.457 119.369 105.457H121.397C134.62 105.457 145.438 116.276 145.438 129.499V163.365C145.438 167.033 142.465 170.006 138.797 170.006" fill="#D8DBEA"/>
<path fill-rule="evenodd" clip-rule="evenodd" d="M148.456 161.938H148.096C146.634 161.938 145.438 160.742 145.438 159.28V140.39C145.438 138.927 146.634 137.732 148.096 137.732H151.699C153.16 137.732 154.356 138.927 154.356 140.39V156.038C154.356 159.283 151.701 161.938 148.456 161.938" fill="url(#paint0_linear_102_10716)"/>
<path fill-rule="evenodd" clip-rule="evenodd" d="M92.6704 161.938H92.3102C89.0642 161.938 86.4091 159.283 86.4091 156.038V140.39C86.4091 138.927 87.6046 137.732 89.0666 137.732H92.6704C94.1316 137.732 95.3272 138.927 95.3272 140.39V159.28C95.3272 160.742 94.1316 161.938 92.6704 161.938" fill="url(#paint1_linear_102_10716)"/>
<path fill-rule="evenodd" clip-rule="evenodd" d="M136.096 160.866L119.959 165.973L103.821 160.866V149.835H136.096V160.866Z" fill="#BEC0D6"/>
<path fill-rule="evenodd" clip-rule="evenodd" d="M110.351 163.801L109.594 164.556C108.965 165.183 107.946 165.183 107.316 164.556L106.56 163.801V156.746H110.351V163.801Z" fill="url(#paint2_linear_102_10716)"/>
<path fill-rule="evenodd" clip-rule="evenodd" d="M109.221 162.56C109.221 162.983 108.877 163.326 108.455 163.326C108.031 163.326 107.688 162.983 107.688 162.56C107.688 162.136 108.031 161.793 108.455 161.793C108.877 161.793 109.221 162.136 109.221 162.56" fill="#F7FFF6"/>
<path fill-rule="evenodd" clip-rule="evenodd" d="M132.009 163.801L131.252 164.556C130.623 165.183 129.604 165.183 128.974 164.556L128.218 163.801V156.746H132.009V163.801Z" fill="url(#paint3_linear_102_10716)"/>
<path fill-rule="evenodd" clip-rule="evenodd" d="M130.879 162.559C130.879 162.983 130.536 163.325 130.113 163.325C129.689 163.325 129.346 162.983 129.346 162.559C129.346 162.135 129.689 161.793 130.113 161.793C130.536 161.793 130.879 162.135 130.879 162.559" fill="#F7FFF6"/>
<path fill-rule="evenodd" clip-rule="evenodd" d="M143.031 130.741V134.333V141.791L100.492 121.417C103.32 114.188 110.386 109.042 118.582 109.042H122.184C132.868 109.042 143.031 120.048 143.031 130.741" fill="white"/>
<path fill-rule="evenodd" clip-rule="evenodd" d="M100.492 132.619V129.027V121.569L143.031 141.944C140.204 149.172 133.137 154.318 124.941 154.318H121.34C110.655 154.318 100.492 143.312 100.492 132.619" fill="url(#paint4_linear_102_10716)"/>
<path d="M134.067 34.3154C105.836 36.7052 95.4603 60.6005 103.96 74.5293C109.958 84.3568 120.121 97.6384 139.067 94.4526C158.011 91.2659 159.607 73.7333 149.63 71.3484C139.653 68.9643 104.109 80.0869 108.126 105.782C111.025 124.322 136.16 129.666 136.16 129.666" stroke="#D7DAE9" stroke-width="2" stroke-dasharray="7"/>
<path fill-rule="evenodd" clip-rule="evenodd" d="M150.385 19.6462C150.385 19.6462 154.43 9.07911 154.856 4.96838C155.081 2.8204 151.521 -3.16006 147.355 2.37186C143.189 7.90378 145.09 14.6866 150.385 19.6462" fill="#D8DBEA"/>
<path fill-rule="evenodd" clip-rule="evenodd" d="M136.031 8.13796C131.292 6.53536 129.146 7.78487 128.232 10.2789C127.318 12.7738 128.594 17.5226 135.742 18.6051C142.89 19.6876 149.977 19.6461 149.977 19.6461C149.977 19.6461 140.77 9.74056 136.031 8.13796" fill="#D8DBEA"/>
<path fill-rule="evenodd" clip-rule="evenodd" d="M149.582 21.7398C149.689 21.2981 149.832 20.8747 149.99 20.4609C149.115 20.5991 148.225 20.7932 147.329 21.056C146.357 21.3404 145.45 21.7134 144.597 22.1408C144.226 22.8405 143.926 23.5881 143.732 24.3909C142.531 29.3329 145.366 34.3141 150.129 35.9452C150.645 35.843 151.163 35.7248 151.682 35.573C153.133 35.148 154.471 34.5857 155.681 33.9339C151.029 31.893 148.352 26.8 149.582 21.7398" fill="#D8DBEA"/>
<path fill-rule="evenodd" clip-rule="evenodd" d="M142.781 24.317C142.894 23.8288 143.049 23.3619 143.22 22.9058C139.099 25.5458 136.791 29.6431 137.172 32.0324C134.539 33.1642 132.861 34.1176 132.861 34.1176C132.861 34.1176 134.848 33.9664 137.743 33.41C139.294 35.676 143.593 37.1933 148.346 36.6492C144.04 34.4226 141.61 29.3554 142.781 24.317" fill="#D8DBEA"/>
<path fill-rule="evenodd" clip-rule="evenodd" d="M156.427 26.1085C155.335 25.8465 154.659 24.7499 154.921 23.6517C155.183 22.561 156.287 21.8851 157.378 22.147C158.474 22.4107 159.144 23.5115 158.883 24.603C158.62 25.7004 157.525 26.3713 156.427 26.1085M161.21 24.6416C160.332 21.5986 156.292 20.0271 151.527 20.5653C151.328 21.0368 151.159 21.5342 151.038 22.0494C149.977 26.5661 152.427 31.1095 156.584 32.6854C160.053 30.4788 162 27.3544 161.21 24.6416" fill="#D8DBEA"/>
<defs>
<linearGradient id="paint0_linear_102_10716" x1="149.897" y1="125.629" x2="134.194" y2="131.414" gradientUnits="userSpaceOnUse">
<stop stop-color="#FF8960"/>
<stop offset="1" stop-color="#FF62A5"/>
</linearGradient>
<linearGradient id="paint1_linear_102_10716" x1="90.8681" y1="125.629" x2="75.1636" y2="131.415" gradientUnits="userSpaceOnUse">
<stop stop-color="#FF8960"/>
<stop offset="1" stop-color="#FF62A5"/>
</linearGradient>
<linearGradient id="paint2_linear_102_10716" x1="108.456" y1="152.606" x2="102.187" y2="155.477" gradientUnits="userSpaceOnUse">
<stop stop-color="#FF8960"/>
<stop offset="1" stop-color="#FF62A5"/>
</linearGradient>
<linearGradient id="paint3_linear_102_10716" x1="130.114" y1="152.606" x2="123.846" y2="155.476" gradientUnits="userSpaceOnUse">
<stop stop-color="#FF8960"/>
<stop offset="1" stop-color="#FF62A5"/>
</linearGradient>
<linearGradient id="paint4_linear_102_10716" x1="121.761" y1="105.194" x2="90.1012" y2="146.319" gradientUnits="userSpaceOnUse">
<stop stop-color="#FF8960"/>
<stop offset="1" stop-color="#FF62A5"/>
</linearGradient>
</defs>
</svg>
